999
dxfrw 0.6.3
  0
SECTION
  2
HEADER
  9
$ACADVER
  1
AC1014
  9
$DWGCODEPAGE
  3
ANSI_1252
  9
$INSBASE
 10
0
 20
0
 30
0
  9
$EXTMIN
 10
5.143706
 20
5.143702999999997
 30
0
  9
$EXTMAX
 10
162.9982961124113
 20
183.1464078642928
 30
0
  9
$LIMMIN
 10
0
 20
0
  9
$LIMMAX
 10
420
 20
297
  9
$ORTHOMODE
 70
    0
  9
$REGENMODE
 70
    1
  9
$FILLMODE
 70
    1
  9
$QTEXTMODE
 70
    0
  9
$MIRRTEXT
 70
    0
  9
$LTSCALE
 40
1
  9
$ATTMODE
 70
    0
  9
$TEXTSIZE
 40
2.5
  9
$TRACEWID
 40
15.68
  9
$TEXTSTYLE
  7
STANDARD
  9
$CLAYER
  8
0
  9
$CELTYPE
  6
BYLAYER
  9
$CECOLOR
 62
  256
  9
$CELTSCALE
 40
1
  9
$DISPSILH
 70
    0
  9
$DIMSCALE
 40
1
  9
$DIMASZ
 40
2.5
  9
$DIMEXO
 40
0.625
  9
$DIMDLI
 40
3.75
  9
$DIMRND
 40
0
  9
$DIMDLE
 40
0
  9
$DIMEXE
 40
1.25
  9
$DIMTP
 40
0
  9
$DIMTM
 40
0
  9
$DIMTXT
 40
2.5
  9
$DIMCEN
 40
2.5
  9
$DIMTSZ
 40
0
  9
$DIMTOL
 70
    0
  9
$DIMLIM
 70
    0
  9
$DIMTIH
 70
    0
  9
$DIMTOH
 70
    0
  9
$DIMSE1
 70
    0
  9
$DIMSE2
 70
    0
  9
$DIMTAD
 70
    1
  9
$DIMZIN
 70
    1
  9
$DIMBLK
  1

  9
$DIMASO
 70
    1
  9
$DIMSHO
 70
    1
  9
$DIMPOST
  1

  9
$DIMAPOST
  1

  9
$DIMALT
 70
    0
  9
$DIMALTD
 70
    3
  9
$DIMALTF
 40
0.03937
  9
$DIMLFAC
 40
1
  9
$DIMTOFL
 70
    1
  9
$DIMTVP
 40
0
  9
$DIMTIX
 70
    0
  9
$DIMSOXD
 70
    0
  9
$DIMSAH
 70
    0
  9
$DIMBLK1
  1

  9
$DIMBLK2
  1

  9
$DIMSTYLE
  2
Standard
  9
$DIMCLRD
 70
    0
  9
$DIMCLRE
 70
    0
  9
$DIMCLRT
 70
    0
  9
$DIMTFAC
 40
1
  9
$DIMGAP
 40
0.625
  9
$DIMJUST
 70
    0
  9
$DIMSD1
 70
    0
  9
$DIMSD2
 70
    0
  9
$DIMTOLJ
 70
    0
  9
$DIMTZIN
 70
    8
  9
$DIMALTZ
 70
    0
  9
$DIMALTTZ
 70
    0
  9
$DIMUPT
 70
    0
  9
$DIMDEC
 70
    1
  9
$DIMTDEC
 70
    2
  9
$DIMALTU
 70
    2
  9
$DIMALTTD
 70
    3
  9
$DIMTXSTY
  7
standard
  9
$DIMAUNIT
 70
    0
  9
$DIMADEC
 70
    0
  9
$DIMALTRND
 40
0
  9
$DIMAZIN
 70
    0
  9
$DIMDSEP
 70
    0
  9
$DIMATFIT
 70
    3
  9
$DIMFRAC
 70
    0
  9
$DIMLDRBLK
  1
STANDARD
  9
$DIMUNIT
 70
    2
  9
$DIMLWD
 70
   -2
  9
$DIMLWE
 70
   -2
  9
$DIMTMOVE
 70
    0
  9
$LUNITS
 70
    2
  9
$LUPREC
 70
    1
  9
$SKETCHINC
 40
1
  9
$FILLETRAD
 40
0
  9
$AUNITS
 70
    0
  9
$AUPREC
 70
    0
  9
$MENU
  1
.
  9
$ELEVATION
 40
0
  9
$PELEVATION
 40
0
  9
$THICKNESS
 40
0
  9
$LIMCHECK
 70
    0
  9
$BLIPMODE
 70
    0
  9
$CHAMFERA
 40
0
  9
$CHAMFERB
 40
0
  9
$CHAMFERC
 40
0
  9
$CHAMFERD
 40
0
  9
$SKPOLY
 70
    0
  9
$USRTIMER
 70
    1
  9
$ANGBASE
 50
0
  9
$ANGDIR
 70
    0
  9
$PDMODE
 70
   34
  9
$PDSIZE
 40
0
  9
$PLINEWID
 40
0
  9
$SPLFRAME
 70
    0
  9
$SPLINETYPE
 70
    2
  9
$SPLINESEGS
 70
    8
  9
$HANDSEED
  5
20000
  9
$SURFTAB1
 70
    6
  9
$SURFTAB2
 70
    6
  9
$SURFTYPE
 70
    6
  9
$SURFU
 70
    6
  9
$SURFV
 70
    6
  9
$UCSBASE
  2

  9
$UCSNAME
  2

  9
$UCSORG
 10
0
 20
0
 30
0
  9
$UCSXDIR
 10
1
 20
0
 30
0
  9
$UCSYDIR
 10
0
 20
1
 30
0
  9
$UCSORTHOREF
  2

  9
$UCSORTHOVIEW
 70
    0
  9
$UCSORGTOP
 10
0
 20
0
 30
0
  9
$UCSORGBOTTOM
 10
0
 20
0
 30
0
  9
$UCSORGLEFT
 10
0
 20
0
 30
0
  9
$UCSORGRIGHT
 10
0
 20
0
 30
0
  9
$UCSORGFRONT
 10
0
 20
0
 30
0
  9
$UCSORGBACK
 10
0
 20
0
 30
0
  9
$PUCSBASE
  2

  9
$PUCSNAME
  2

  9
$PUCSORG
 10
0
 20
0
 30
0
  9
$PUCSXDIR
 10
1
 20
0
 30
0
  9
$PUCSYDIR
 10
0
 20
1
 30
0
  9
$PUCSORTHOREF
  2

  9
$PUCSORTHOVIEW
 70
    0
  9
$PUCSORGTOP
 10
0
 20
0
 30
0
  9
$PUCSORGBOTTOM
 10
0
 20
0
 30
0
  9
$PUCSORGLEFT
 10
0
 20
0
 30
0
  9
$PUCSORGRIGHT
 10
0
 20
0
 30
0
  9
$PUCSORGFRONT
 10
0
 20
0
 30
0
  9
$PUCSORGBACK
 10
0
 20
0
 30
0
  9
$USERI1
 70
    0
  9
$USERI2
 70
    0
  9
$USERI3
 70
    0
  9
$USERI4
 70
    0
  9
$USERI5
 70
    0
  9
$USERR1
 40
0
  9
$USERR2
 40
0
  9
$USERR3
 40
0
  9
$USERR4
 40
0
  9
$USERR5
 40
0
  9
$WORLDVIEW
 70
    1
  9
$SHADEDGE
 70
    3
  9
$SHADEDIF
 70
   70
  9
$TILEMODE
 70
    1
  9
$MAXACTVP
 70
   64
  9
$PINSBASE
 10
0
 20
0
 30
0
  9
$PLIMCHECK
 70
    0
  9
$PEXTMIN
 10
0
 20
0
 30
0
  9
$PEXTMAX
 10
0
 20
0
 30
0
  9
$GRIDMODE
 70
    0
  9
$SNAPSTYLE
 70
    0
  9
$GRIDUNIT
 10
0
 20
0
  9
$PLIMMIN
 10
0
 20
0
  9
$PLIMMAX
 10
210
 20
297
  9
$UNITMODE
 70
    0
  9
$VISRETAIN
 70
    1
  9
$PLINEGEN
 70
    0
  9
$PSLTSCALE
 70
    1
  9
$TREEDEPTH
 70
 3020
  9
$CMLSTYLE
  2
Standard
  9
$CMLJUST
 70
    0
  9
$CMLSCALE
 40
20
  9
$PROXYGRAPHICS
 70
    1
  9
$MEASUREMENT
 70
    1
  9
$CELWEIGHT
370
   -1
  9
$ENDCAPS
280
    0
  9
$JOINSTYLE
280
    0
  9
$LWDISPLAY
290
    0
  9
$HYPERLINKBASE
  1

  9
$STYLESHEET
  1

  9
$XEDIT
290
    1
  9
$CEPSNTYPE
380
    0
  9
$PSTYLEMODE
290
    1
  9
$EXTNAMES
290
    1
  9
$PSVPSCALE
 40
1
  9
$OLESTARTUP
290
    0
  0
ENDSEC
  0
SECTION
  2
CLASSES
  0
ENDSEC
  0
SECTION
  2
TABLES
  0
TABLE
  2
VPORT
  5
8
100
AcDbSymbolTable
 70
    1
  0
VPORT
  5
31
330
2
100
AcDbSymbolTableRecord
100
AcDbViewportTableRecord
  2
*ACTIVE
 70
    0
 10
0
 20
0
 11
1
 21
1
 12
170.6286473212373
 22
133.2589062956168
 13
0
 23
0
 14
10
 24
10
 15
10
 25
10
 16
0
 26
0
 36
1
 17
0
 27
0
 37
0
 40
294.5053633168047
 41
1.705183585313175
 42
50
 43
0
 44
0
 50
0
 51
0
 71
    0
 72
  100
 73
    1
 74
    3
 75
    0
 76
    0
 77
    0
 78
    0
  0
ENDTAB
  0
TABLE
  2
LTYPE
  5
5
100
AcDbSymbolTable
 70
    4
  0
LTYPE
  5
14
100
AcDbSymbolTableRecord
100
AcDbLinetypeTableRecord
  2
ByBlock
 70
    0
  3

 72
   65
 73
    0
 40
0
  0
LTYPE
  5
15
100
AcDbSymbolTableRecord
100
AcDbLinetypeTableRecord
  2
ByLayer
 70
    0
  3

 72
   65
 73
    0
 40
0
  0
LTYPE
  5
16
100
AcDbSymbolTableRecord
100
AcDbLinetypeTableRecord
  2
Continuous
 70
    0
  3
Solid line
 72
   65
 73
    0
 40
0
  0
LTYPE
  5
32
330
5
100
AcDbSymbolTableRecord
100
AcDbLinetypeTableRecord
  2
DOT
 70
    0
  3
Dot . . . . . . . . . . . . . . . . . . . . . .
 72
   65
 73
    2
 40
6.35
 49
0
 74
    0
 49
-6.35
 74
    0
  0
LTYPE
  5
33
330
5
100
AcDbSymbolTableRecord
100
AcDbLinetypeTableRecord
  2
DOTTINY
 70
    0
  3
Dot (.15x) .....................................
 72
   65
 73
    2
 40
0.9525
 49
0
 74
    0
 49
-0.9525
 74
    0
  0
LTYPE
  5
34
330
5
100
AcDbSymbolTableRecord
100
AcDbLinetypeTableRecord
  2
DOT2
 70
    0
  3
Dot (.5x) .....................................
 72
   65
 73
    2
 40
3.175
 49
0
 74
    0
 49
-3.175
 74
    0
  0
LTYPE
  5
35
330
5
100
AcDbSymbolTableRecord
100
AcDbLinetypeTableRecord
  2
DOTX2
 70
    0
  3
Dot (2x) .  .  .  .  .  .  .  .  .  .  .  .  .
 72
   65
 73
    2
 40
12.7
 49
0
 74
    0
 49
-12.7
 74
    0
  0
LTYPE
  5
36
330
5
100
AcDbSymbolTableRecord
100
AcDbLinetypeTableRecord
  2
DASHED
 70
    0
  3
Dashed _ _ _ _ _ _ _ _ _ _ _ _ _ _ _ _ _
 72
   65
 73
    2
 40
19.05
 49
12.7
 74
    0
 49
-6.35
 74
    0
  0
LTYPE
  5
37
330
5
100
AcDbSymbolTableRecord
100
AcDbLinetypeTableRecord
  2
DASHEDTINY
 70
    0
  3
Dashed (.15x) _ _ _ _ _ _ _ _ _ _ _ _ _ _ _ _ _
 72
   65
 73
    2
 40
2.8575
 49
1.905
 74
    0
 49
-0.9525
 74
    0
  0
LTYPE
  5
38
330
5
100
AcDbSymbolTableRecord
100
AcDbLinetypeTableRecord
  2
DASHED2
 70
    0
  3
Dashed (.5x) _ _ _ _ _ _ _ _ _ _ _ _ _ _ _ _ _
 72
   65
 73
    2
 40
9.524999999999999
 49
6.35
 74
    0
 49
-3.175
 74
    0
  0
LTYPE
  5
39
330
5
100
AcDbSymbolTableRecord
100
AcDbLinetypeTableRecord
  2
DASHEDX2
 70
    0
  3
Dashed (2x) ____  ____  ____  ____  ____  ___
 72
   65
 73
    2
 40
38.09999999999999
 49
25.4
 74
    0
 49
-12.7
 74
    0
  0
LTYPE
  5
3A
330
5
100
AcDbSymbolTableRecord
100
AcDbLinetypeTableRecord
  2
DASHDOT
 70
    0
  3
Dash dot __ . __ . __ . __ . __ . __ . __ . __
 72
   65
 73
    4
 40
25.4
 49
12.7
 74
    0
 49
-6.35
 74
    0
 49
0
 74
    0
 49
-6.35
 74
    0
  0
LTYPE
  5
3B
330
5
100
AcDbSymbolTableRecord
100
AcDbLinetypeTableRecord
  2
DASHDOTTINY
 70
    0
  3
Dash dot (.15x) _._._._._._._._._._._._._._._.
 72
   65
 73
    4
 40
3.81
 49
1.905
 74
    0
 49
-0.9525
 74
    0
 49
0
 74
    0
 49
-0.9525
 74
    0
  0
LTYPE
  5
3C
330
5
100
AcDbSymbolTableRecord
100
AcDbLinetypeTableRecord
  2
DASHDOT2
 70
    0
  3
Dash dot (.5x) _._._._._._._._._._._._._._._.
 72
   65
 73
    4
 40
12.7
 49
6.35
 74
    0
 49
-3.175
 74
    0
 49
0
 74
    0
 49
-3.175
 74
    0
  0
LTYPE
  5
3D
330
5
100
AcDbSymbolTableRecord
100
AcDbLinetypeTableRecord
  2
DASHDOTX2
 70
    0
  3
Dash dot (2x) ____  .  ____  .  ____  .  ___
 72
   65
 73
    4
 40
50.8
 49
25.4
 74
    0
 49
-12.7
 74
    0
 49
0
 74
    0
 49
-12.7
 74
    0
  0
LTYPE
  5
3E
330
5
100
AcDbSymbolTableRecord
100
AcDbLinetypeTableRecord
  2
DIVIDE
 70
    0
  3
Divide ____ . . ____ . . ____ . . ____ . . ____
 72
   65
 73
    6
 40
31.75
 49
12.7
 74
    0
 49
-6.35
 74
    0
 49
0
 74
    0
 49
-6.35
 74
    0
 49
0
 74
    0
 49
-6.35
 74
    0
  0
LTYPE
  5
3F
330
5
100
AcDbSymbolTableRecord
100
AcDbLinetypeTableRecord
  2
DIVIDETINY
 70
    0
  3
Divide (.15x) __..__..__..__..__..__..__..__.._
 72
   65
 73
    6
 40
4.7625
 49
1.905
 74
    0
 49
-0.9525
 74
    0
 49
0
 74
    0
 49
-0.9525
 74
    0
 49
0
 74
    0
 49
-0.9525
 74
    0
  0
LTYPE
  5
40
330
5
100
AcDbSymbolTableRecord
100
AcDbLinetypeTableRecord
  2
DIVIDE2
 70
    0
  3
Divide (.5x) __..__..__..__..__..__..__..__.._
 72
   65
 73
    6
 40
15.875
 49
6.35
 74
    0
 49
-3.175
 74
    0
 49
0
 74
    0
 49
-3.175
 74
    0
 49
0
 74
    0
 49
-3.175
 74
    0
  0
LTYPE
  5
41
330
5
100
AcDbSymbolTableRecord
100
AcDbLinetypeTableRecord
  2
DIVIDEX2
 70
    0
  3
Divide (2x) ________  .  .  ________  .  .  _
 72
   65
 73
    6
 40
63.5
 49
25.4
 74
    0
 49
-12.7
 74
    0
 49
0
 74
    0
 49
-12.7
 74
    0
 49
0
 74
    0
 49
-12.7
 74
    0
  0
LTYPE
  5
42
330
5
100
AcDbSymbolTableRecord
100
AcDbLinetypeTableRecord
  2
BORDER
 70
    0
  3
Border __ __ . __ __ . __ __ . __ __ . __ __ .
 72
   65
 73
    6
 40
44.45
 49
12.7
 74
    0
 49
-6.35
 74
    0
 49
12.7
 74
    0
 49
-6.35
 74
    0
 49
0
 74
    0
 49
-6.35
 74
    0
  0
LTYPE
  5
43
330
5
100
AcDbSymbolTableRecord
100
AcDbLinetypeTableRecord
  2
BORDERTINY
 70
    0
  3
Border (.15x) __.__.__.__.__.__.__.__.__.__.__.
 72
   65
 73
    6
 40
6.6675
 49
1.905
 74
    0
 49
-0.9525
 74
    0
 49
1.905
 74
    0
 49
-0.9525
 74
    0
 49
0
 74
    0
 49
-0.9525
 74
    0
  0
LTYPE
  5
44
330
5
100
AcDbSymbolTableRecord
100
AcDbLinetypeTableRecord
  2
BORDER2
 70
    0
  3
Border (.5x) __.__.__.__.__.__.__.__.__.__.__.
 72
   65
 73
    6
 40
22.225
 49
6.35
 74
    0
 49
-3.175
 74
    0
 49
6.35
 74
    0
 49
-3.175
 74
    0
 49
0
 74
    0
 49
-3.175
 74
    0
  0
LTYPE
  5
45
330
5
100
AcDbSymbolTableRecord
100
AcDbLinetypeTableRecord
  2
BORDERX2
 70
    0
  3
Border (2x) ____  ____  .  ____  ____  .  ___
 72
   65
 73
    6
 40
88.89999999999999
 49
25.4
 74
    0
 49
-12.7
 74
    0
 49
25.4
 74
    0
 49
-12.7
 74
    0
 49
0
 74
    0
 49
-12.7
 74
    0
  0
LTYPE
  5
46
330
5
100
AcDbSymbolTableRecord
100
AcDbLinetypeTableRecord
  2
CENTER
 70
    0
  3
Center ____ _ ____ _ ____ _ ____ _ ____ _ ____
 72
   65
 73
    4
 40
50.8
 49
31.75
 74
    0
 49
-6.35
 74
    0
 49
6.35
 74
    0
 49
-6.35
 74
    0
  0
LTYPE
  5
47
330
5
100
AcDbSymbolTableRecord
100
AcDbLinetypeTableRecord
  2
CENTERTINY
 70
    0
  3
Center (.15x) ___ _ ___ _ ___ _ ___ _ ___ _ ___
 72
   65
 73
    4
 40
7.619999999999999
 49
4.7625
 74
    0
 49
-0.9525
 74
    0
 49
0.9525
 74
    0
 49
-0.9525
 74
    0
  0
LTYPE
  5
48
330
5
100
AcDbSymbolTableRecord
100
AcDbLinetypeTableRecord
  2
CENTER2
 70
    0
  3
Center (.5x) ___ _ ___ _ ___ _ ___ _ ___ _ ___
 72
   65
 73
    4
 40
28.575
 49
19.05
 74
    0
 49
-3.175
 74
    0
 49
3.175
 74
    0
 49
-3.175
 74
    0
  0
LTYPE
  5
49
330
5
100
AcDbSymbolTableRecord
100
AcDbLinetypeTableRecord
  2
CENTERX2
 70
    0
  3
Center (2x) ________  __  ________  __  _____
 72
   65
 73
    4
 40
101.6
 49
63.5
 74
    0
 49
-12.7
 74
    0
 49
12.7
 74
    0
 49
-12.7
 74
    0
  0
ENDTAB
  0
TABLE
  2
LAYER
  5
2
100
AcDbSymbolTable
 70
    1
  0
LAYER
  5
10
330
2
100
AcDbSymbolTableRecord
100
AcDbLayerTableRecord
  2
0
 70
    0
 62
    7
  6
CONTINUOUS
370
   -3
390
F
  0
LAYER
  5
4A
330
2
100
AcDbSymbolTableRecord
100
AcDbLayerTableRecord
  2
cabletie-holes
 70
    0
 62
    7
  6
CONTINUOUS
370
   -3
390
F
  0
LAYER
  5
4B
330
2
100
AcDbSymbolTableRecord
100
AcDbLayerTableRecord
  2
hanging-holes
 70
    0
 62
    7
  6
CONTINUOUS
370
   -3
390
F
  0
LAYER
  5
4C
330
2
100
AcDbSymbolTableRecord
100
AcDbLayerTableRecord
  2
outline
 70
    0
 62
    7
  6
CONTINUOUS
370
   -3
390
F
  0
LAYER
  5
4D
330
2
100
AcDbSymbolTableRecord
100
AcDbLayerTableRecord
  2
rfp-hook-holes
 70
    0
 62
    7
  6
CONTINUOUS
370
   -3
390
F
  0
LAYER
  5
4E
330
2
100
AcDbSymbolTableRecord
100
AcDbLayerTableRecord
  2
rfp-latching-holes
 70
    0
 62
    7
  6
CONTINUOUS
370
   -3
390
F
  0
ENDTAB
  0
TABLE
  2
STYLE
  5
3
100
AcDbSymbolTable
 70
    3
  0
STYLE
  5
4F
330
2
100
AcDbSymbolTableRecord
100
AcDbTextStyleTableRecord
  2
Standard
 70
    0
 40
0
 41
1
 50
0
 71
    0
 42
1
  3
txt
  4

  0
ENDTAB
  0
TABLE
  2
VIEW
  5
6
100
AcDbSymbolTable
 70
    0
  0
ENDTAB
  0
TABLE
  2
UCS
  5
7
100
AcDbSymbolTable
 70
    0
  0
ENDTAB
  0
TABLE
  2
APPID
  5
9
100
AcDbSymbolTable
 70
    1
  0
APPID
  5
12
100
AcDbSymbolTableRecord
100
AcDbRegAppTableRecord
  2
ACAD
 70
    0
  0
APPID
  5
50
100
AcDbSymbolTableRecord
100
AcDbRegAppTableRecord
  2
LibreCad
 70
    0
  0
ENDTAB
  0
TABLE
  2
DIMSTYLE
  5
A
100
AcDbSymbolTable
 70
    1
  0
DIMSTYLE
105
51
330
A
100
AcDbSymbolTableRecord
100
AcDbDimStyleTableRecord
  2
Standard
 70
    0
 40
1
 41
2.5
 42
0.625
 43
0.38
 44
1.25
 45
0
 46
0
 47
0
 48
0
 49
1
140
2.5
141
0.09
142
0
143
25.4
144
1
145
0
146
1
147
0.625
 71
    0
 72
    0
 73
    0
 74
    1
 75
    0
 76
    0
 77
    0
 78
    1
170
    0
171
    2
172
    0
173
    0
174
    0
175
    0
176
    0
177
    0
178
    0
270
    2
271
    1
272
    4
273
    2
274
    2
275
    0
280
    0
281
    0
282
    0
283
    1
284
    0
285
    0
286
    0
287
    3
288
    0
340
standard
  0
ENDTAB
  0
TABLE
  2
BLOCK_RECORD
  5
1
100
AcDbSymbolTable
 70
    2
  0
BLOCK_RECORD
  5
1F
100
AcDbSymbolTableRecord
100
AcDbBlockTableRecord
  2
*Model_Space
  0
BLOCK_RECORD
  5
1E
100
AcDbSymbolTableRecord
100
AcDbBlockTableRecord
  2
*Paper_Space
  0
BLOCK_RECORD
  5
52
100
AcDbSymbolTableRecord
100
AcDbBlockTableRecord
  2
*D6
  0
BLOCK_RECORD
  5
55
100
AcDbSymbolTableRecord
100
AcDbBlockTableRecord
  2
*D2
  0
BLOCK_RECORD
  5
58
100
AcDbSymbolTableRecord
100
AcDbBlockTableRecord
  2
*D1
  0
BLOCK_RECORD
  5
5B
100
AcDbSymbolTableRecord
100
AcDbBlockTableRecord
  2
*D3
  0
BLOCK_RECORD
  5
5E
100
AcDbSymbolTableRecord
100
AcDbBlockTableRecord
  2
*D4
  0
BLOCK_RECORD
  5
61
100
AcDbSymbolTableRecord
100
AcDbBlockTableRecord
  2
*D5
  0
ENDTAB
  0
ENDSEC
  0
SECTION
  2
BLOCKS
  0
BLOCK
  5
20
100
AcDbEntity
  8
0
100
AcDbBlockBegin
  2
*Model_Space
 70
    0
 10
0
 20
0
 30
0
  3
*Model_Space
  1

  0
ENDBLK
  5
21
100
AcDbEntity
  8
0
100
AcDbBlockEnd
  0
BLOCK
  5
1C
100
AcDbEntity
  8
0
100
AcDbBlockBegin
  2
*Paper_Space
 70
    0
 10
0
 20
0
 30
0
  3
*Paper_Space
  1

  0
ENDBLK
  5
1D
100
AcDbEntity
  8
0
100
AcDbBlockEnd
  0
BLOCK
  5
53
100
AcDbEntity
  8
0
100
AcDbBlockBegin
  2
*D6
 70
    1
 10
0
 20
0
  3
*D6
  1

  0
LINE
  5
64
100
AcDbEntity
  8
0
  6
ByBlock
 62
    0
100
AcDbLine
 10
148.468693
 20
170.306015
 11
162.9982961124113
 21
170.306015
  0
LINE
  5
65
100
AcDbEntity
  8
0
  6
ByBlock
 62
    0
100
AcDbLine
 10
148.468693
 20
5.143703
 11
162.9982961124113
 21
5.143702999999997
  0
LINE
  5
66
100
AcDbEntity
  8
0
  6
ByBlock
 62
    0
100
AcDbLine
 10
161.7482961124113
 20
170.306015
 11
161.7482961124113
 21
5.143702999999997
  0
SOLID
  5
67
100
AcDbEntity
  8
0
  6
ByBlock
 62
    0
100
AcDbTrace
 10
161.7482961124113
 20
170.306015
 30
0
 11
162.1645807701841
 21
167.806015
 31
0
 12
161.3320114546384
 22
167.806015
 32
0
 13
161.3320114546384
 23
167.806015
 33
0
  0
SOLID
  5
68
100
AcDbEntity
  8
0
  6
ByBlock
 62
    0
100
AcDbTrace
 10
161.7482961124113
 20
5.143702999999997
 30
0
 11
161.3320114546384
 21
7.643702999999997
 31
0
 12
162.1645807701841
 22
7.643702999999997
 32
0
 13
162.1645807701841
 23
7.643702999999997
 33
0
  0
MTEXT
  5
69
100
AcDbEntity
  8
0
  6
CONTINUOUS
 62
    0
100
AcDbMText
 10
159.8732961124113
 20
87.724859
 30
0
 40
2.5
 41
7.222222222222532
 71
    5
 72
    1
  1
165.2
  7
standard
210
0
220
0
230
1
 50
90
 73
    2
 44
1
  0
ENDBLK
  5
54
100
AcDbEntity
  8
0
100
AcDbBlockEnd
  0
BLOCK
  5
56
100
AcDbEntity
  8
0
100
AcDbBlockBegin
  2
*D2
 70
    1
 10
0
 20
0
  3
*D2
  1

  0
LINE
  5
6A
100
AcDbEntity
  8
0
  6
ByBlock
 62
    0
100
AcDbLine
 10
29.63170481132565
 20
63.57241999857609
 11
29.6311791634274
 21
71.35957948408951
  0
LINE
  5
6B
100
AcDbEntity
  8
0
  6
ByBlock
 62
    0
100
AcDbLine
 10
122.2217198113256
 20
63.5786699985761
 11
122.2211941634274
 21
71.3658294840895
  0
LINE
  5
6C
100
AcDbEntity
  8
0
  6
ByBlock
 62
    0
100
AcDbLine
 10
29.6312635407761
 20
70.10957948693732
 11
122.2212785407761
 21
70.11582948693732
  0
SOLID
  5
6D
100
AcDbEntity
  8
0
  6
ByBlock
 62
    0
100
AcDbTrace
 10
29.6312635407761
 20
70.10957948693732
 30
0
 11
32.13123543508389
 21
70.52603289845916
 31
0
 12
32.13129163507705
 22
69.69346358481029
 32
0
 13
32.13129163507705
 23
69.69346358481029
 33
0
  0
SOLID
  5
6E
100
AcDbEntity
  8
0
  6
ByBlock
 62
    0
100
AcDbTrace
 10
122.2212785407761
 20
70.11582948693732
 30
0
 11
119.7213066464683
 21
69.69937607541547
 31
0
 12
119.7212504464751
 22
70.53194538906435
 32
0
 13
119.7212504464751
 23
70.53194538906435
 33
0
  0
MTEXT
  5
6F
100
AcDbEntity
  8
0
  6
CONTINUOUS
 62
    0
100
AcDbMText
 10
75.92614447475304
 20
71.98770448266559
 30
0
 40
2.5
 41
5.833333333333644
 71
    5
 72
    1
  1
92.6
  7
standard
210
0
220
0
230
1
 50
0.003867572776752501
 73
    2
 44
1
  0
ENDBLK
  5
57
100
AcDbEntity
  8
0
100
AcDbBlockEnd
  0
BLOCK
  5
59
100
AcDbEntity
  8
0
100
AcDbBlockBegin
  2
*D1
 70
    1
 10
0
 20
0
  3
*D1
  1

  0
LINE
  5
70
100
AcDbEntity
  8
0
  6
ByBlock
 62
    0
100
AcDbLine
 10
32.48906986344728
 20
60.77050863559781
 11
27.97662704231508
 21
52.02132511531342
  0
LINE
  5
71
100
AcDbEntity
  8
0
  6
ByBlock
 62
    0
100
AcDbLine
 10
29.34525886344729
 20
62.39194763559782
 11
24.83281604231509
 21
53.64276411531343
  0
LINE
  5
72
100
AcDbEntity
  8
0
  6
ByBlock
 62
    0
100
AcDbLine
 10
32.99338223063799
 20
50.84036475169609
 11
20.96201340020303
 21
57.0456139365395
  0
SOLID
  5
73
100
AcDbEntity
  8
0
  6
ByBlock
 62
    0
100
AcDbTrace
 10
28.54960331542051
 20
53.13226984411779
 30
0
 11
30.96230975843857
 21
52.35629269489484
 31
0
 12
30.58067578761993
 22
51.61634190091905
 32
0
 13
30.58067578761993
 23
51.61634190091905
 33
0
  0
SOLID
  5
74
100
AcDbEntity
  8
0
  6
ByBlock
 62
    0
100
AcDbTrace
 10
25.40579231542051
 20
54.7537088441178
 30
0
 11
22.99308587240245
 21
55.52968599334075
 31
0
 12
23.37471984322109
 22
56.26963678731654
 32
0
 13
23.37471984322109
 23
56.26963678731654
 33
0
  0
MTEXT
  5
75
100
AcDbEntity
  8
0
  6
CONTINUOUS
 62
    0
100
AcDbMText
 10
31.69267633428777
 20
53.6209023759409
 30
0
 40
2.5
 41
3.888888888889199
 71
    5
 72
    1
  1
3.5
  7
standard
210
0
220
0
230
1
 50
332.7173131685842
 73
    2
 44
1
  0
ENDBLK
  5
5A
100
AcDbEntity
  8
0
100
AcDbBlockEnd
  0
BLOCK
  5
5C
100
AcDbEntity
  8
0
100
AcDbBlockBegin
  2
*D3
 70
    1
 10
0
 20
0
  3
*D3
  1

  0
LINE
  5
76
100
AcDbEntity
  8
0
  6
ByBlock
 62
    0
100
AcDbLine
 10
14.969175
 20
103.0801805
 11
14.969175
 21
109.5489588322081
  0
LINE
  5
77
100
AcDbEntity
  8
0
  6
ByBlock
 62
    0
100
AcDbLine
 10
16.462312
 20
103.0801805
 11
16.462312
 21
109.5489588322081
  0
LINE
  5
78
100
AcDbEntity
  8
0
  6
ByBlock
 62
    0
100
AcDbLine
 10
9.969175
 20
108.2989588322081
 11
21.462312
 21
108.2989588322081
  0
SOLID
  5
79
100
AcDbEntity
  8
0
  6
ByBlock
 62
    0
100
AcDbTrace
 10
14.969175
 20
108.2989588322081
 30
0
 11
12.469175
 21
107.8826741744353
 31
0
 12
12.469175
 22
108.7152434899809
 32
0
 13
12.469175
 23
108.7152434899809
 33
0
  0
SOLID
  5
7A
100
AcDbEntity
  8
0
  6
ByBlock
 62
    0
100
AcDbTrace
 10
16.462312
 20
108.2989588322081
 30
0
 11
18.962312
 21
108.7152434899809
 31
0
 12
18.962312
 22
107.8826741744353
 32
0
 13
18.962312
 23
107.8826741744353
 33
0
  0
MTEXT
  5
7B
100
AcDbEntity
  8
0
  6
CONTINUOUS
 62
    0
100
AcDbMText
 10
18.75397866666675
 20
110.1739588322081
 30
0
 40
2.5
 41
3.333333333333488
 71
    5
 72
    1
  1
1.5
  7
standard
210
0
220
0
230
1
 50
0
 73
    2
 44
1
  0
ENDBLK
  5
5D
100
AcDbEntity
  8
0
100
AcDbBlockEnd
  0
BLOCK
  5
5F
100
AcDbEntity
  8
0
100
AcDbBlockBegin
  2
*D4
 70
    1
 10
0
 20
0
  3
*D4
  1

  0
LINE
  5
7C
100
AcDbEntity
  8
0
  6
ByBlock
 62
    0
100
AcDbLine
 10
16.465662
 20
101.8301805
 11
16.465662
 21
91.8070373765718
  0
LINE
  5
7D
100
AcDbEntity
  8
0
  6
ByBlock
 62
    0
100
AcDbLine
 10
139.963018
 20
101.8301805
 11
139.963018
 21
91.8070373765718
  0
LINE
  5
7E
100
AcDbEntity
  8
0
  6
ByBlock
 62
    0
100
AcDbLine
 10
16.465662
 20
93.0570373765718
 11
139.963018
 21
93.0570373765718
  0
SOLID
  5
7F
100
AcDbEntity
  8
0
  6
ByBlock
 62
    0
100
AcDbTrace
 10
16.465662
 20
93.0570373765718
 30
0
 11
18.965662
 21
93.47332203434463
 31
0
 12
18.965662
 22
92.64075271879896
 32
0
 13
18.965662
 23
92.64075271879896
 33
0
  0
SOLID
  5
80
100
AcDbEntity
  8
0
  6
ByBlock
 62
    0
100
AcDbTrace
 10
139.963018
 20
93.0570373765718
 30
0
 11
137.463018
 21
92.64075271879896
 31
0
 12
137.463018
 22
93.47332203434463
 32
0
 13
137.463018
 23
93.47332203434463
 33
0
  0
MTEXT
  5
81
100
AcDbEntity
  8
0
  6
CONTINUOUS
 62
    0
100
AcDbMText
 10
78.21434000000001
 20
94.9320373765718
 30
0
 40
2.5
 41
7.222222222222532
 71
    5
 72
    1
  1
123.5
  7
standard
210
0
220
0
230
1
 50
0
 73
    2
 44
1
  0
ENDBLK
  5
60
100
AcDbEntity
  8
0
100
AcDbBlockEnd
  0
BLOCK
  5
62
100
AcDbEntity
  8
0
100
AcDbBlockBegin
  2
*D5
 70
    1
 10
0
 20
0
  3
*D5
  1

  0
LINE
  5
82
100
AcDbEntity
  8
0
  6
ByBlock
 62
    0
100
AcDbLine
 10
5.143706
 20
160.0413989275779
 11
5.143706000000001
 21
181.2714078642928
  0
LINE
  5
83
100
AcDbEntity
  8
0
  6
ByBlock
 62
    0
100
AcDbLine
 10
149.843691
 20
160.0413989275779
 11
149.843691
 21
181.2714078642928
  0
LINE
  5
84
100
AcDbEntity
  8
0
  6
ByBlock
 62
    0
100
AcDbLine
 10
5.143706000000001
 20
180.0214078642928
 11
149.843691
 21
180.0214078642928
  0
SOLID
  5
85
100
AcDbEntity
  8
0
  6
ByBlock
 62
    0
100
AcDbTrace
 10
5.143706000000001
 20
180.0214078642928
 30
0
 11
7.643706000000001
 21
180.4376925220656
 31
0
 12
7.643706000000001
 22
179.6051232065199
 32
0
 13
7.643706000000001
 23
179.6051232065199
 33
0
  0
SOLID
  5
86
100
AcDbEntity
  8
0
  6
ByBlock
 62
    0
100
AcDbTrace
 10
149.843691
 20
180.0214078642928
 30
0
 11
147.343691
 21
179.6051232065199
 31
0
 12
147.343691
 22
180.4376925220656
 32
0
 13
147.343691
 23
180.4376925220656
 33
0
  0
MTEXT
  5
87
100
AcDbEntity
  8
0
  6
CONTINUOUS
 62
    0
100
AcDbMText
 10
77.49369850000001
 20
181.8964078642928
 30
0
 40
2.5
 41
7.777777777777779
 71
    5
 72
    1
  1
144.7
  7
standard
210
0
220
0
230
1
 50
0
 73
    2
 44
1
  0
ENDBLK
  5
63
100
AcDbEntity
  8
0
100
AcDbBlockEnd
  0
ENDSEC
  0
SECTION
  2
ENTITIES
  0
SPLINE
  5
88
100
AcDbEntity
  8
outline
  6
ByLayer
 62
    7
100
AcDbSpline
210
0
220
0
230
0
 70
    8
 71
    3
 72
    8
 73
    4
 74
    0
 42
1e-07
 43
1e-07
 40
0
 40
0
 40
0
 40
0
 40
1
 40
1
 40
1
 40
1
 10
147.843693
 20
170.306015
 30
0
 10
148.374126
 20
170.306015
 30
0
 10
148.882833
 20
170.095302
 30
0
 10
149.257905
 20
169.720229
 30
0
  0
SPLINE
  5
89
100
AcDbEntity
  8
outline
  6
ByLayer
 62
    7
100
AcDbSpline
210
0
220
0
230
0
 70
    8
 71
    3
 72
    8
 73
    4
 74
    0
 42
1e-07
 43
1e-07
 40
0
 40
0
 40
0
 40
0
 40
1
 40
1
 40
1
 40
1
 10
149.257905
 20
169.720229
 30
0
 10
149.632978
 20
169.345157
 30
0
 10
149.843691
 20
168.836449
 30
0
 10
149.843691
 20
168.306017
 30
0
  0
LWPOLYLINE
  5
8A
100
AcDbEntity
  8
outline
  6
ByLayer
 62
    7
100
AcDbPolyline
 90
    2
 70
    0
 43
0
 10
7.143704
 20
170.306015
 10
147.843693
 20
170.306015
  0
SPLINE
  5
8B
100
AcDbEntity
  8
outline
  6
ByLayer
 62
    7
100
AcDbSpline
210
0
220
0
230
0
 70
    8
 71
    3
 72
    8
 73
    4
 74
    0
 42
1e-07
 43
1e-07
 40
0
 40
0
 40
0
 40
0
 40
1
 40
1
 40
1
 40
1
 10
149.843691
 20
7.143701
 30
0
 10
149.843691
 20
6.613269
 30
0
 10
149.632978
 20
6.104561
 30
0
 10
149.257905
 20
5.729489
 30
0
  0
SPLINE
  5
8C
100
AcDbEntity
  8
outline
  6
ByLayer
 62
    7
100
AcDbSpline
210
0
220
0
230
0
 70
    8
 71
    3
 72
    8
 73
    4
 74
    0
 42
1e-07
 43
1e-07
 40
0
 40
0
 40
0
 40
0
 40
1
 40
1
 40
1
 40
1
 10
149.257905
 20
5.729489
 30
0
 10
148.882833
 20
5.354416
 30
0
 10
148.374126
 20
5.143703
 30
0
 10
147.843693
 20
5.143703
 30
0
  0
LWPOLYLINE
  5
8D
100
AcDbEntity
  8
outline
  6
ByLayer
 62
    7
100
AcDbPolyline
 90
    2
 70
    0
 43
0
 10
149.843691
 20
168.306017
 10
149.843691
 20
7.143701
  0
SPLINE
  5
8E
100
AcDbEntity
  8
outline
  6
ByLayer
 62
    7
100
AcDbSpline
210
0
220
0
230
0
 70
    8
 71
    3
 72
    8
 73
    4
 74
    0
 42
1e-07
 43
1e-07
 40
0
 40
0
 40
0
 40
0
 40
1
 40
1
 40
1
 40
1
 10
7.143704
 20
5.143703
 30
0
 10
6.613272
 20
5.143703
 30
0
 10
6.104564
 20
5.354416
 30
0
 10
5.729492
 20
5.729489
 30
0
  0
SPLINE
  5
8F
100
AcDbEntity
  8
outline
  6
ByLayer
 62
    7
100
AcDbSpline
210
0
220
0
230
0
 70
    8
 71
    3
 72
    8
 73
    4
 74
    0
 42
1e-07
 43
1e-07
 40
0
 40
0
 40
0
 40
0
 40
1
 40
1
 40
1
 40
1
 10
5.729492
 20
5.729489
 30
0
 10
5.354419
 20
6.104561
 30
0
 10
5.143706
 20
6.613269
 30
0
 10
5.143706
 20
7.143701
 30
0
  0
LWPOLYLINE
  5
90
100
AcDbEntity
  8
outline
  6
ByLayer
 62
    7
100
AcDbPolyline
 90
    2
 70
    0
 43
0
 10
147.843693
 20
5.143703
 10
7.143704
 20
5.143703
  0
SPLINE
  5
91
100
AcDbEntity
  8
outline
  6
ByLayer
 62
    7
100
AcDbSpline
210
0
220
0
230
0
 70
    8
 71
    3
 72
    8
 73
    4
 74
    0
 42
1e-07
 43
1e-07
 40
0
 40
0
 40
0
 40
0
 40
1
 40
1
 40
1
 40
1
 10
5.143706
 20
168.306017
 30
0
 10
5.143706
 20
168.836449
 30
0
 10
5.354419
 20
169.345157
 30
0
 10
5.729492
 20
169.720229
 30
0
  0
SPLINE
  5
92
100
AcDbEntity
  8
outline
  6
ByLayer
 62
    7
100
AcDbSpline
210
0
220
0
230
0
 70
    8
 71
    3
 72
    8
 73
    4
 74
    0
 42
1e-07
 43
1e-07
 40
0
 40
0
 40
0
 40
0
 40
1
 40
1
 40
1
 40
1
 10
5.729492
 20
169.720229
 30
0
 10
6.104564
 20
170.095302
 30
0
 10
6.613272
 20
170.306015
 30
0
 10
7.143704
 20
170.306015
 30
0
  0
LWPOLYLINE
  5
93
100
AcDbEntity
  8
outline
  6
ByLayer
 62
    7
100
AcDbPolyline
 90
    2
 70
    0
 43
0
 10
5.143706
 20
7.143701
 10
5.143706
 20
168.306017
  0
SPLINE
  5
94
100
AcDbEntity
  8
rfp-hook-holes
  6
ByLayer
 62
    7
100
AcDbSpline
210
0
220
0
230
0
 70
    8
 71
    3
 72
    8
 73
    4
 74
    0
 42
1e-07
 43
1e-07
 40
0
 40
0
 40
0
 40
0
 40
1
 40
1
 40
1
 40
1
 10
124.604391
 20
63.714849
 30
0
 10
125.021287
 20
63.499833
 30
0
 10
125.335693
 20
63.128012
 30
0
 10
125.478444
 20
62.681183
 30
0
  0
SPLINE
  5
95
100
AcDbEntity
  8
rfp-hook-holes
  6
ByLayer
 62
    7
100
AcDbSpline
210
0
220
0
230
0
 70
    8
 71
    3
 72
    8
 73
    4
 74
    0
 42
1e-07
 43
1e-07
 40
0
 40
0
 40
0
 40
0
 40
1
 40
1
 40
1
 40
1
 10
125.478444
 20
62.681183
 30
0
 10
125.621195
 20
62.234353
 30
0
 10
125.580596
 20
61.749117
 30
0
 10
125.36558
 20
61.332221
 30
0
  0
SPLINE
  5
96
100
AcDbEntity
  8
rfp-hook-holes
  6
ByLayer
 62
    7
100
AcDbSpline
210
0
220
0
230
0
 70
    8
 71
    3
 72
    8
 73
    4
 74
    0
 42
1e-07
 43
1e-07
 40
0
 40
0
 40
0
 40
0
 40
1
 40
1
 40
1
 40
1
 10
125.36558
 20
61.332221
 30
0
 10
125.150564
 20
60.915322
 30
0
 10
124.778741
 20
60.600914
 30
0
 10
124.331909
 20
60.458163
 30
0
  0
SPLINE
  5
97
100
AcDbEntity
  8
rfp-hook-holes
  6
ByLayer
 62
    7
100
AcDbSpline
210
0
220
0
230
0
 70
    8
 71
    3
 72
    8
 73
    4
 74
    0
 42
1e-07
 43
1e-07
 40
0
 40
0
 40
0
 40
0
 40
1
 40
1
 40
1
 40
1
 10
124.331909
 20
60.458163
 30
0
 10
123.885077
 20
60.315412
 30
0
 10
123.399839
 20
60.356012
 30
0
 10
122.982942
 20
60.571032
 30
0
  0
SPLINE
  5
98
100
AcDbEntity
  8
rfp-hook-holes
  6
ByLayer
 62
    7
100
AcDbSpline
210
0
220
0
230
0
 70
    8
 71
    3
 72
    8
 73
    4
 74
    0
 42
1e-07
 43
1e-07
 40
0
 40
0
 40
0
 40
0
 40
1
 40
1
 40
1
 40
1
 10
122.982942
 20
60.571032
 30
0
 10
122.566045
 20
60.786049
 30
0
 10
122.251639
 20
61.157873
 30
0
 10
122.10889
 20
61.604705
 30
0
  0
SPLINE
  5
99
100
AcDbEntity
  8
rfp-hook-holes
  6
ByLayer
 62
    7
100
AcDbSpline
210
0
220
0
230
0
 70
    8
 71
    3
 72
    8
 73
    4
 74
    0
 42
1e-07
 43
1e-07
 40
0
 40
0
 40
0
 40
0
 40
1
 40
1
 40
1
 40
1
 10
122.10889
 20
61.604705
 30
0
 10
121.966141
 20
62.051536
 30
0
 10
122.006742
 20
62.536774
 30
0
 10
122.221762
 20
62.95367
 30
0
  0
SPLINE
  5
9A
100
AcDbEntity
  8
rfp-hook-holes
  6
ByLayer
 62
    7
100
AcDbSpline
210
0
220
0
230
0
 70
    8
 71
    3
 72
    8
 73
    4
 74
    0
 42
1e-07
 43
1e-07
 40
0
 40
0
 40
0
 40
0
 40
1
 40
1
 40
1
 40
1
 10
122.221762
 20
62.95367
 30
0
 10
122.669514
 20
63.821808
 30
0
 10
123.736252
 20
64.162599
 30
0
 10
124.604391
 20
63.714849
 30
0
  0
LWPOLYLINE
  5
9B
100
AcDbEntity
  8
outline
  6
ByLayer
 62
    7
100
AcDbPolyline
 90
    1
 70
    1
 43
0
 10
7.143704
 20
170.306015
  0
SPLINE
  5
9C
100
AcDbEntity
  8
rfp-hook-holes
  6
ByLayer
 62
    7
100
AcDbSpline
210
0
220
0
230
0
 70
    8
 71
    3
 72
    8
 73
    4
 74
    0
 42
1e-07
 43
1e-07
 40
0
 40
0
 40
0
 40
0
 40
1
 40
1
 40
1
 40
1
 10
32.014377
 20
63.708609
 30
0
 10
32.882516
 20
63.260858
 30
0
 10
33.223308
 20
62.19412
 30
0
 10
32.775558
 20
61.325981
 30
0
  0
SPLINE
  5
9D
100
AcDbEntity
  8
rfp-hook-holes
  6
ByLayer
 62
    7
100
AcDbSpline
210
0
220
0
230
0
 70
    8
 71
    3
 72
    8
 73
    4
 74
    0
 42
1e-07
 43
1e-07
 40
0
 40
0
 40
0
 40
0
 40
1
 40
1
 40
1
 40
1
 10
32.775558
 20
61.325981
 30
0
 10
32.560542
 20
60.909085
 30
0
 10
32.188721
 20
60.594678
 30
0
 10
31.741891
 20
60.451927
 30
0
  0
SPLINE
  5
9E
100
AcDbEntity
  8
rfp-hook-holes
  6
ByLayer
 62
    7
100
AcDbSpline
210
0
220
0
230
0
 70
    8
 71
    3
 72
    8
 73
    4
 74
    0
 42
1e-07
 43
1e-07
 40
0
 40
0
 40
0
 40
0
 40
1
 40
1
 40
1
 40
1
 10
31.741891
 20
60.451927
 30
0
 10
31.295061
 20
60.309176
 30
0
 10
30.809825
 20
60.349775
 30
0
 10
30.392929
 20
60.564792
 30
0
  0
SPLINE
  5
9F
100
AcDbEntity
  8
rfp-hook-holes
  6
ByLayer
 62
    7
100
AcDbSpline
210
0
220
0
230
0
 70
    8
 71
    3
 72
    8
 73
    4
 74
    0
 42
1e-07
 43
1e-07
 40
0
 40
0
 40
0
 40
0
 40
1
 40
1
 40
1
 40
1
 10
30.392929
 20
60.564792
 30
0
 10
29.52479
 20
61.012542
 30
0
 10
29.183998
 20
62.079281
 30
0
 10
29.631747
 20
62.94742
 30
0
  0
SPLINE
  5
A0
100
AcDbEntity
  8
rfp-hook-holes
  6
ByLayer
 62
    7
100
AcDbSpline
210
0
220
0
230
0
 70
    8
 71
    3
 72
    8
 73
    4
 74
    0
 42
1e-07
 43
1e-07
 40
0
 40
0
 40
0
 40
0
 40
1
 40
1
 40
1
 40
1
 10
29.631747
 20
62.94742
 30
0
 10
29.846763
 20
63.364317
 30
0
 10
30.218585
 20
63.678723
 30
0
 10
30.665415
 20
63.821474
 30
0
  0
SPLINE
  5
A1
100
AcDbEntity
  8
rfp-hook-holes
  6
ByLayer
 62
    7
100
AcDbSpline
210
0
220
0
230
0
 70
    8
 71
    3
 72
    8
 73
    4
 74
    0
 42
1e-07
 43
1e-07
 40
0
 40
0
 40
0
 40
0
 40
1
 40
1
 40
1
 40
1
 10
30.665415
 20
63.821474
 30
0
 10
31.112245
 20
63.964225
 30
0
 10
31.597481
 20
63.923626
 30
0
 10
32.014377
 20
63.708609
 30
0
  0
LWPOLYLINE
  5
A2
100
AcDbEntity
  8
rfp-hook-holes
  6
ByLayer
 62
    7
100
AcDbPolyline
 90
    1
 70
    1
 43
0
 10
124.604391
 20
63.714849
  0
LWPOLYLINE
  5
A3
100
AcDbEntity
  8
rfp-hook-holes
  6
ByLayer
 62
    7
100
AcDbPolyline
 90
    1
 70
    1
 43
0
 10
32.014377
 20
63.708609
  0
LWPOLYLINE
  5
A4
100
AcDbEntity
  8
rfp-latching-holes
  6
ByLayer
 62
    7
100
AcDbPolyline
 90
   38
 70
    1
 43
0
 10
77.23428699999999
 20
114.051321
 10
77.10229699999999
 20
113.994861
 10
76.98442900000001
 20
113.915091
 10
76.883689
 20
113.814631
 10
76.803119
 20
113.695852
 10
76.794319
 20
113.679312
 10
76.73988900000001
 20
113.542591
 10
76.713509
 20
113.401913
 10
76.714038
 20
113.261041
 10
76.740568
 20
113.123711
 10
76.791938
 20
112.993642
 10
76.867048
 20
112.874503
 10
76.964848
 20
112.770011
 10
77.084216
 20
112.683891
 10
77.11818599999999
 20
112.665261
 10
77.23794700000001
 20
112.615951
 10
77.36344699999999
 20
112.588051
 10
77.491857
 20
112.581951
 10
77.62033599999999
 20
112.598061
 10
77.69232599999999
 20
112.617241
 10
77.807647
 20
112.664971
 10
77.912845
 20
112.730581
 10
78.005855
 20
112.812551
 10
78.084605
 20
112.909351
 10
78.109635
 20
112.948601
 10
78.132255
 20
112.989251
 10
78.186925
 20
113.12707
 10
78.213425
 20
113.27154
 10
78.211325
 20
113.418449
 10
78.18035500000001
 20
113.56347
 10
78.121565
 20
113.699579
 10
78.038115
 20
113.82042
 10
77.93277399999999
 20
113.922779
 10
77.808256
 20
114.003289
 10
77.670445
 20
114.058029
 10
77.525964
 20
114.084519
 10
77.379104
 20
114.082419
 10
77.234134
 20
114.051349
  0
LWPOLYLINE
  5
A5
100
AcDbEntity
  8
rfp-latching-holes
  6
ByLayer
 62
    7
100
AcDbPolyline
 90
   35
 70
    1
 43
0
 10
15.490629
 20
103.152341
 10
15.354207
 20
103.093411
 10
15.233065
 20
103.009771
 10
15.130465
 20
102.90421
 10
15.049675
 20
102.77948
 10
14.996185
 20
102.6459
 10
14.969175
 20
102.505861
 10
14.969003
 20
102.363251
 10
14.996043
 20
102.221921
 10
15.001543
 20
102.204031
 10
15.058183
 20
102.071772
 10
15.138103
 20
101.953633
 10
15.238814
 20
101.852652
 10
15.357858
 20
101.771842
 10
15.374398
 20
101.763042
 10
15.507983
 20
101.709612
 10
15.648011
 20
101.682602
 10
15.790615
 20
101.682412
 10
15.931932
 20
101.709422
 10
15.949842
 20
101.714922
 10
16.082094
 20
101.771592
 10
16.200204
 20
101.851512
 10
16.301172
 20
101.95222
 10
16.382002
 20
102.071241
 10
16.390802
 20
102.087781
 10
16.441002
 20
102.210121
 10
16.469012
 20
102.339341
 10
16.462312
 20
102.57102
 10
16.387932
 20
102.785201
 10
16.253365
 20
102.96766
 10
16.066093
 20
103.104201
 10
15.927957
 20
103.158951
 10
15.783156
 20
103.185501
 10
15.635964
 20
103.183401
 10
15.490646
 20
103.152331
  0
LWPOLYLINE
  5
A6
100
AcDbEntity
  8
rfp-latching-holes
  6
ByLayer
 62
    7
100
AcDbPolyline
 90
   37
 70
    1
 43
0
 10
138.984669
 20
103.14969
 10
138.853019
 20
103.09308
 10
138.735429
 20
103.01343
 10
138.634799
 20
102.91315
 10
138.554099
 20
102.79468
 10
138.545099
 20
102.7782
 10
138.494699
 20
102.65411
 10
138.4671
 20
102.52411
 10
138.4631
 20
102.391241
 10
138.482399
 20
102.258701
 10
138.497399
 20
102.204901
 10
138.553899
 20
102.073152
 10
138.633499
 20
101.955482
 10
138.733829
 20
101.854863
 10
138.852369
 20
101.774323
 10
138.868869
 20
101.765523
 10
139.001969
 20
101.712363
 10
139.141449
 20
101.685543
 10
139.283509
 20
101.685321
 10
139.424339
 20
101.712091
 10
139.442239
 20
101.717591
 10
139.561329
 20
101.767331
 10
139.670279
 20
101.836641
 10
139.789818
 20
101.951232
 10
139.881518
 20
102.089083
 10
139.937318
 20
102.230711
 10
139.963018
 20
102.376192
 10
139.960018
 20
102.52139
 10
139.929418
 20
102.66232
 10
139.872618
 20
102.794861
 10
139.790918
 20
102.914981
 10
139.685619
 20
103.01865
 10
139.558059
 20
103.10175
 10
139.420479
 20
103.15631
 10
139.276229
 20
103.18264
 10
139.129559
 20
103.18054
 10
138.984709
 20
103.14969
  0
LWPOLYLINE
  5
A7
100
AcDbEntity
  8
cabletie-holes
  6
ByLayer
 62
    7
100
AcDbPolyline
 90
    4
 70
    1
 43
0
 10
50.293757
 20
64.97859800000001
 10
51.993756
 20
64.97859800000001
 10
51.993756
 20
59.294863
 10
50.293757
 20
59.294863
  0
LWPOLYLINE
  5
A8
100
AcDbEntity
  8
cabletie-holes
  6
ByLayer
 62
    7
100
AcDbPolyline
 90
    4
 70
    1
 43
0
 10
102.993708
 20
64.97859800000001
 10
104.693706
 20
64.97859800000001
 10
104.693706
 20
59.294863
 10
102.993708
 20
59.294863
  0
LWPOLYLINE
  5
A9
100
AcDbEntity
  8
cabletie-holes
  6
ByLayer
 62
    7
100
AcDbPolyline
 90
    4
 70
    1
 43
0
 10
50.299957
 20
144.641935
 10
51.999956
 20
144.641935
 10
51.999956
 20
138.958199
 10
50.299957
 20
138.958199
  0
LWPOLYLINE
  5
AA
100
AcDbEntity
  8
cabletie-holes
  6
ByLayer
 62
    7
100
AcDbPolyline
 90
    4
 70
    1
 43
0
 10
102.999908
 20
144.641935
 10
104.699906
 20
144.641935
 10
104.699906
 20
138.958199
 10
102.999908
 20
138.958199
  0
LWPOLYLINE
  5
AB
100
AcDbEntity
  8
cabletie-holes
  6
ByLayer
 62
    7
100
AcDbPolyline
 90
    4
 70
    1
 43
0
 10
14.900476
 20
144.641935
 10
16.600475
 20
144.641935
 10
16.600475
 20
138.958199
 10
14.900476
 20
138.958199
  0
LWPOLYLINE
  5
AC
100
AcDbEntity
  8
cabletie-holes
  6
ByLayer
 62
    7
100
AcDbPolyline
 90
    4
 70
    1
 43
0
 10
138.39361
 20
144.641935
 10
140.093608
 20
144.641935
 10
140.093608
 20
138.958199
 10
138.39361
 20
138.958199
  0
LWPOLYLINE
  5
AD
100
AcDbEntity
  8
cabletie-holes
  6
ByLayer
 62
    7
100
AcDbPolyline
 90
    4
 70
    1
 43
0
 10
14.900476
 20
64.97882799999999
 10
16.600475
 20
64.97882799999999
 10
16.600475
 20
59.295103
 10
14.900476
 20
59.295103
  0
LWPOLYLINE
  5
AE
100
AcDbEntity
  8
cabletie-holes
  6
ByLayer
 62
    7
100
AcDbPolyline
 90
    4
 70
    1
 43
0
 10
138.39361
 20
64.97882799999999
 10
140.093608
 20
64.97882799999999
 10
140.093608
 20
59.295103
 10
138.39361
 20
59.295103
  0
LWPOLYLINE
  5
AF
100
AcDbEntity
  8
cabletie-holes
  6
ByLayer
 62
    7
100
AcDbPolyline
 90
    4
 70
    1
 43
0
 10
50.299957
 20
104.841666
 10
51.999956
 20
104.841666
 10
51.999956
 20
99.157931
 10
50.299957
 20
99.157931
  0
LWPOLYLINE
  5
B0
100
AcDbEntity
  8
cabletie-holes
  6
ByLayer
 62
    7
100
AcDbPolyline
 90
    4
 70
    1
 43
0
 10
102.999908
 20
104.841666
 10
104.699906
 20
104.841666
 10
104.699906
 20
99.157931
 10
102.999908
 20
99.157931
  0
LWPOLYLINE
  5
B1
100
AcDbEntity
  8
cabletie-holes
  6
ByLayer
 62
    7
100
AcDbPolyline
 90
    4
 70
    1
 43
0
 10
34.045163
 20
131.601658
 10
34.045163
 20
129.901659
 10
28.361427
 20
129.901659
 10
28.361427
 20
131.601658
  0
LWPOLYLINE
  5
B2
100
AcDbEntity
  8
cabletie-holes
  6
ByLayer
 62
    7
100
AcDbPolyline
 90
    4
 70
    1
 43
0
 10
34.045163
 20
78.901707
 10
34.045163
 20
77.201708
 10
28.361427
 20
77.201708
 10
28.361427
 20
78.901707
  0
LWPOLYLINE
  5
B3
100
AcDbEntity
  8
cabletie-holes
  6
ByLayer
 62
    7
100
AcDbPolyline
 90
    4
 70
    1
 43
0
 10
126.635089
 20
131.601658
 10
126.635089
 20
129.901659
 10
120.951353
 20
129.901659
 10
120.951353
 20
131.601658
  0
LWPOLYLINE
  5
B4
100
AcDbEntity
  8
cabletie-holes
  6
ByLayer
 62
    7
100
AcDbPolyline
 90
    4
 70
    1
 43
0
 10
126.635089
 20
78.901707
 10
126.635089
 20
77.201708
 10
120.951353
 20
77.201708
 10
120.951353
 20
78.901707
  0
LWPOLYLINE
  5
B5
100
AcDbEntity
  8
cabletie-holes
  6
ByLayer
 62
    7
100
AcDbPolyline
 90
    4
 70
    1
 43
0
 10
34.045163
 20
26.201749
 10
34.045163
 20
24.50175
 10
28.361427
 20
24.50175
 10
28.361427
 20
26.201749
  0
SPLINE
  5
B6
100
AcDbEntity
  8
hanging-holes
  6
ByLayer
 62
    7
100
AcDbSpline
210
0
220
0
230
0
 70
    8
 71
    3
 72
    8
 73
    4
 74
    0
 42
1e-07
 43
1e-07
 40
0
 40
0
 40
0
 40
0
 40
1
 40
1
 40
1
 40
1
 10
60.644004
 20
162.060516
 30
0
 10
60.9784
 20
161.888048
 30
0
 10
61.230587
 20
161.589806
 30
0
 10
61.345088
 20
161.231399
 30
0
  0
SPLINE
  5
B7
100
AcDbEntity
  8
hanging-holes
  6
ByLayer
 62
    7
100
AcDbSpline
210
0
220
0
230
0
 70
    8
 71
    3
 72
    8
 73
    4
 74
    0
 42
1e-07
 43
1e-07
 40
0
 40
0
 40
0
 40
0
 40
1
 40
1
 40
1
 40
1
 10
61.345088
 20
161.231399
 30
0
 10
61.459589
 20
160.872992
 30
0
 10
61.427023
 20
160.483779
 30
0
 10
61.254555
 20
160.149383
 30
0
  0
SPLINE
  5
B8
100
AcDbEntity
  8
hanging-holes
  6
ByLayer
 62
    7
100
AcDbSpline
210
0
220
0
230
0
 70
    8
 71
    3
 72
    8
 73
    4
 74
    0
 42
1e-07
 43
1e-07
 40
0
 40
0
 40
0
 40
0
 40
1
 40
1
 40
1
 40
1
 10
61.254555
 20
160.149383
 30
0
 10
60.89541
 20
159.45304
 30
0
 10
60.039767
 20
159.179687
 30
0
 10
59.343424
 20
159.538832
 30
0
  0
SPLINE
  5
B9
100
AcDbEntity
  8
hanging-holes
  6
ByLayer
 62
    7
100
AcDbSpline
210
0
220
0
230
0
 70
    8
 71
    3
 72
    8
 73
    4
 74
    0
 42
1e-07
 43
1e-07
 40
0
 40
0
 40
0
 40
0
 40
1
 40
1
 40
1
 40
1
 10
59.343424
 20
159.538832
 30
0
 10
59.009027
 20
159.711299
 30
0
 10
58.75684
 20
160.009542
 30
0
 10
58.642339
 20
160.367949
 30
0
  0
SPLINE
  5
BA
100
AcDbEntity
  8
hanging-holes
  6
ByLayer
 62
    7
100
AcDbSpline
210
0
220
0
230
0
 70
    8
 71
    3
 72
    8
 73
    4
 74
    0
 42
1e-07
 43
1e-07
 40
0
 40
0
 40
0
 40
0
 40
1
 40
1
 40
1
 40
1
 10
58.642339
 20
160.367949
 30
0
 10
58.527839
 20
160.726355
 30
0
 10
58.560404
 20
161.115568
 30
0
 10
58.732872
 20
161.449964
 30
0
  0
SPLINE
  5
BB
100
AcDbEntity
  8
hanging-holes
  6
ByLayer
 62
    7
100
AcDbSpline
210
0
220
0
230
0
 70
    8
 71
    3
 72
    8
 73
    4
 74
    0
 42
1e-07
 43
1e-07
 40
0
 40
0
 40
0
 40
0
 40
1
 40
1
 40
1
 40
1
 10
58.732872
 20
161.449964
 30
0
 10
59.092017
 20
162.146308
 30
0
 10
59.94766
 20
162.419661
 30
0
 10
60.644004
 20
162.060516
 30
0
  0
LWPOLYLINE
  5
BC
100
AcDbEntity
  8
cabletie-holes
  6
ByLayer
 62
    7
100
AcDbPolyline
 90
    4
 70
    1
 43
0
 10
126.635089
 20
26.201749
 10
126.635089
 20
24.50175
 10
120.951353
 20
24.50175
 10
120.951353
 20
26.201749
  0
SPLINE
  5
BD
100
AcDbEntity
  8
hanging-holes
  6
ByLayer
 62
    7
100
AcDbSpline
210
0
220
0
230
0
 70
    8
 71
    3
 72
    8
 73
    4
 74
    0
 42
1e-07
 43
1e-07
 40
0
 40
0
 40
0
 40
0
 40
1
 40
1
 40
1
 40
1
 10
95.64397599999999
 20
162.060516
 30
0
 10
95.97837199999999
 20
161.888048
 30
0
 10
96.230559
 20
161.589806
 30
0
 10
96.34506
 20
161.231399
 30
0
  0
SPLINE
  5
BE
100
AcDbEntity
  8
hanging-holes
  6
ByLayer
 62
    7
100
AcDbSpline
210
0
220
0
230
0
 70
    8
 71
    3
 72
    8
 73
    4
 74
    0
 42
1e-07
 43
1e-07
 40
0
 40
0
 40
0
 40
0
 40
1
 40
1
 40
1
 40
1
 10
96.34506
 20
161.231399
 30
0
 10
96.45956099999999
 20
160.872992
 30
0
 10
96.42699500000001
 20
160.483779
 30
0
 10
96.254527
 20
160.149383
 30
0
  0
SPLINE
  5
BF
100
AcDbEntity
  8
hanging-holes
  6
ByLayer
 62
    7
100
AcDbSpline
210
0
220
0
230
0
 70
    8
 71
    3
 72
    8
 73
    4
 74
    0
 42
1e-07
 43
1e-07
 40
0
 40
0
 40
0
 40
0
 40
1
 40
1
 40
1
 40
1
 10
96.254527
 20
160.149383
 30
0
 10
95.895382
 20
159.45304
 30
0
 10
95.039739
 20
159.179687
 30
0
 10
94.343396
 20
159.538832
 30
0
  0
SPLINE
  5
C0
100
AcDbEntity
  8
hanging-holes
  6
ByLayer
 62
    7
100
AcDbSpline
210
0
220
0
230
0
 70
    8
 71
    3
 72
    8
 73
    4
 74
    0
 42
1e-07
 43
1e-07
 40
0
 40
0
 40
0
 40
0
 40
1
 40
1
 40
1
 40
1
 10
94.343396
 20
159.538832
 30
0
 10
94.009
 20
159.711299
 30
0
 10
93.756812
 20
160.009542
 30
0
 10
93.64231100000001
 20
160.367949
 30
0
  0
SPLINE
  5
C1
100
AcDbEntity
  8
hanging-holes
  6
ByLayer
 62
    7
100
AcDbSpline
210
0
220
0
230
0
 70
    8
 71
    3
 72
    8
 73
    4
 74
    0
 42
1e-07
 43
1e-07
 40
0
 40
0
 40
0
 40
0
 40
1
 40
1
 40
1
 40
1
 10
93.64231100000001
 20
160.367949
 30
0
 10
93.527811
 20
160.726355
 30
0
 10
93.56037600000001
 20
161.115568
 30
0
 10
93.732844
 20
161.449964
 30
0
  0
SPLINE
  5
C2
100
AcDbEntity
  8
hanging-holes
  6
ByLayer
 62
    7
100
AcDbSpline
210
0
220
0
230
0
 70
    8
 71
    3
 72
    8
 73
    4
 74
    0
 42
1e-07
 43
1e-07
 40
0
 40
0
 40
0
 40
0
 40
1
 40
1
 40
1
 40
1
 10
93.732844
 20
161.449964
 30
0
 10
94.09199
 20
162.146308
 30
0
 10
94.947632
 20
162.419661
 30
0
 10
95.64397599999999
 20
162.060516
 30
0
  0
LWPOLYLINE
  5
C3
100
AcDbEntity
  8
hanging-holes
  6
ByLayer
 62
    7
100
AcDbPolyline
 90
    1
 70
    1
 43
0
 10
60.644004
 20
162.060516
  0
LWPOLYLINE
  5
C4
100
AcDbEntity
  8
hanging-holes
  6
ByLayer
 62
    7
100
AcDbPolyline
 90
    1
 70
    1
 43
0
 10
95.64397599999999
 20
162.060516
  0
SPLINE
  5
C5
100
AcDbEntity
  8
hanging-holes
  6
ByLayer
 62
    7
100
AcDbSpline
210
0
220
0
230
0
 70
    8
 71
    3
 72
    8
 73
    4
 74
    0
 42
1e-07
 43
1e-07
 40
0
 40
0
 40
0
 40
0
 40
1
 40
1
 40
1
 40
1
 10
71.06654
 20
152.738559
 30
0
 10
70.912266
 20
152.738559
 30
0
 10
70.769712
 20
152.82096
 30
0
 10
70.692576
 20
152.954722
 30
0
  0
SPLINE
  5
C6
100
AcDbEntity
  8
hanging-holes
  6
ByLayer
 62
    7
100
AcDbSpline
210
0
220
0
230
0
 70
    8
 71
    3
 72
    8
 73
    4
 74
    0
 42
1e-07
 43
1e-07
 40
0
 40
0
 40
0
 40
0
 40
1
 40
1
 40
1
 40
1
 10
70.692576
 20
152.954722
 30
0
 10
70.61543899999999
 20
153.088484
 30
0
 10
70.61543899999999
 20
153.253286
 30
0
 10
70.692576
 20
153.387048
 30
0
  0
LWPOLYLINE
  5
C7
100
AcDbEntity
  8
hanging-holes
  6
ByLayer
 62
    7
100
AcDbPolyline
 90
    3
 70
    0
 43
0
 10
83.933347
 20
152.738559
 10
78.247871
 20
152.738559
 10
71.06654
 20
152.738559
  0
SPLINE
  5
C8
100
AcDbEntity
  8
hanging-holes
  6
ByLayer
 62
    7
100
AcDbSpline
210
0
220
0
230
0
 70
    8
 71
    3
 72
    8
 73
    4
 74
    0
 42
1e-07
 43
1e-07
 40
0
 40
0
 40
0
 40
0
 40
1
 40
1
 40
1
 40
1
 10
77.125979
 20
164.543168
 30
0
 10
77.20311599999999
 20
164.67693
 30
0
 10
77.34567
 20
164.759331
 30
0
 10
77.499943
 20
164.759331
 30
0
  0
SPLINE
  5
C9
100
AcDbEntity
  8
hanging-holes
  6
ByLayer
 62
    7
100
AcDbSpline
210
0
220
0
230
0
 70
    8
 71
    3
 72
    8
 73
    4
 74
    0
 42
1e-07
 43
1e-07
 40
0
 40
0
 40
0
 40
0
 40
1
 40
1
 40
1
 40
1
 10
77.499943
 20
164.759331
 30
0
 10
77.65421600000001
 20
164.759331
 30
0
 10
77.79677
 20
164.67693
 30
0
 10
77.873907
 20
164.543168
 30
0
  0
LWPOLYLINE
  5
CA
100
AcDbEntity
  8
hanging-holes
  6
ByLayer
 62
    7
100
AcDbPolyline
 90
    3
 70
    0
 43
0
 10
70.692576
 20
153.387048
 10
73.535314
 20
158.31662
 10
77.125979
 20
164.543168
  0
SPLINE
  5
CB
100
AcDbEntity
  8
hanging-holes
  6
ByLayer
 62
    7
100
AcDbSpline
210
0
220
0
230
0
 70
    8
 71
    3
 72
    8
 73
    4
 74
    0
 42
1e-07
 43
1e-07
 40
0
 40
0
 40
0
 40
0
 40
1
 40
1
 40
1
 40
1
 10
84.307311
 20
153.387048
 30
0
 10
84.38444699999999
 20
153.253286
 30
0
 10
84.38444699999999
 20
153.088484
 30
0
 10
84.307311
 20
152.954722
 30
0
  0
SPLINE
  5
CC
100
AcDbEntity
  8
hanging-holes
  6
ByLayer
 62
    7
100
AcDbSpline
210
0
220
0
230
0
 70
    8
 71
    3
 72
    8
 73
    4
 74
    0
 42
1e-07
 43
1e-07
 40
0
 40
0
 40
0
 40
0
 40
1
 40
1
 40
1
 40
1
 10
84.307311
 20
152.954722
 30
0
 10
84.23017400000001
 20
152.82096
 30
0
 10
84.08762
 20
152.738559
 30
0
 10
83.933347
 20
152.738559
 30
0
  0
LWPOLYLINE
  5
CD
100
AcDbEntity
  8
hanging-holes
  6
ByLayer
 62
    7
100
AcDbPolyline
 90
    3
 70
    0
 43
0
 10
77.873907
 20
164.543168
 10
80.716645
 20
159.613596
 10
84.307311
 20
153.387048
  0
LWPOLYLINE
  5
CE
100
AcDbEntity
  8
hanging-holes
  6
ByLayer
 62
    7
100
AcDbPolyline
 90
    1
 70
    1
 43
0
 10
83.933347
 20
152.738559
  0
SPLINE
  5
CF
100
AcDbEntity
  8
hanging-holes
  6
ByLayer
 62
    7
100
AcDbSpline
210
0
220
0
230
0
 70
    8
 71
    3
 72
    8
 73
    4
 74
    0
 42
1e-07
 43
1e-07
 40
0
 40
0
 40
0
 40
0
 40
1
 40
1
 40
1
 40
1
 10
24.77025
 20
152.738559
 30
0
 10
24.615977
 20
152.738559
 30
0
 10
24.473423
 20
152.82096
 30
0
 10
24.396287
 20
152.954722
 30
0
  0
SPLINE
  5
D0
100
AcDbEntity
  8
hanging-holes
  6
ByLayer
 62
    7
100
AcDbSpline
210
0
220
0
230
0
 70
    8
 71
    3
 72
    8
 73
    4
 74
    0
 42
1e-07
 43
1e-07
 40
0
 40
0
 40
0
 40
0
 40
1
 40
1
 40
1
 40
1
 10
24.396287
 20
152.954722
 30
0
 10
24.31915
 20
153.088484
 30
0
 10
24.31915
 20
153.253286
 30
0
 10
24.396287
 20
153.387048
 30
0
  0
LWPOLYLINE
  5
D1
100
AcDbEntity
  8
hanging-holes
  6
ByLayer
 62
    7
100
AcDbPolyline
 90
    3
 70
    0
 43
0
 10
37.637058
 20
152.738559
 10
31.951582
 20
152.738559
 10
24.77025
 20
152.738559
  0
SPLINE
  5
D2
100
AcDbEntity
  8
hanging-holes
  6
ByLayer
 62
    7
100
AcDbSpline
210
0
220
0
230
0
 70
    8
 71
    3
 72
    8
 73
    4
 74
    0
 42
1e-07
 43
1e-07
 40
0
 40
0
 40
0
 40
0
 40
1
 40
1
 40
1
 40
1
 10
30.82969
 20
164.543168
 30
0
 10
30.906827
 20
164.67693
 30
0
 10
31.049381
 20
164.759331
 30
0
 10
31.203654
 20
164.759331
 30
0
  0
SPLINE
  5
D3
100
AcDbEntity
  8
hanging-holes
  6
ByLayer
 62
    7
100
AcDbSpline
210
0
220
0
230
0
 70
    8
 71
    3
 72
    8
 73
    4
 74
    0
 42
1e-07
 43
1e-07
 40
0
 40
0
 40
0
 40
0
 40
1
 40
1
 40
1
 40
1
 10
31.203654
 20
164.759331
 30
0
 10
31.357927
 20
164.759331
 30
0
 10
31.500481
 20
164.67693
 30
0
 10
31.577618
 20
164.543168
 30
0
  0
LWPOLYLINE
  5
D4
100
AcDbEntity
  8
hanging-holes
  6
ByLayer
 62
    7
100
AcDbPolyline
 90
    3
 70
    0
 43
0
 10
24.396287
 20
153.387048
 10
27.239025
 20
158.31662
 10
30.82969
 20
164.543168
  0
SPLINE
  5
D5
100
AcDbEntity
  8
hanging-holes
  6
ByLayer
 62
    7
100
AcDbSpline
210
0
220
0
230
0
 70
    8
 71
    3
 72
    8
 73
    4
 74
    0
 42
1e-07
 43
1e-07
 40
0
 40
0
 40
0
 40
0
 40
1
 40
1
 40
1
 40
1
 10
38.011022
 20
153.387048
 30
0
 10
38.088158
 20
153.253286
 30
0
 10
38.088158
 20
153.088484
 30
0
 10
38.011022
 20
152.954722
 30
0
  0
SPLINE
  5
D6
100
AcDbEntity
  8
hanging-holes
  6
ByLayer
 62
    7
100
AcDbSpline
210
0
220
0
230
0
 70
    8
 71
    3
 72
    8
 73
    4
 74
    0
 42
1e-07
 43
1e-07
 40
0
 40
0
 40
0
 40
0
 40
1
 40
1
 40
1
 40
1
 10
38.011022
 20
152.954722
 30
0
 10
37.933885
 20
152.82096
 30
0
 10
37.791331
 20
152.738559
 30
0
 10
37.637058
 20
152.738559
 30
0
  0
LWPOLYLINE
  5
D7
100
AcDbEntity
  8
hanging-holes
  6
ByLayer
 62
    7
100
AcDbPolyline
 90
    3
 70
    0
 43
0
 10
31.577618
 20
164.543168
 10
34.420356
 20
159.613596
 10
38.011022
 20
153.387048
  0
LWPOLYLINE
  5
D8
100
AcDbEntity
  8
hanging-holes
  6
ByLayer
 62
    7
100
AcDbPolyline
 90
    1
 70
    1
 43
0
 10
37.637058
 20
152.738559
  0
SPLINE
  5
D9
100
AcDbEntity
  8
hanging-holes
  6
ByLayer
 62
    7
100
AcDbSpline
210
0
220
0
230
0
 70
    8
 71
    3
 72
    8
 73
    4
 74
    0
 42
1e-07
 43
1e-07
 40
0
 40
0
 40
0
 40
0
 40
1
 40
1
 40
1
 40
1
 10
117.360266
 20
152.738559
 30
0
 10
117.205992
 20
152.738559
 30
0
 10
117.063438
 20
152.82096
 30
0
 10
116.986302
 20
152.954722
 30
0
  0
SPLINE
  5
DA
100
AcDbEntity
  8
hanging-holes
  6
ByLayer
 62
    7
100
AcDbSpline
210
0
220
0
230
0
 70
    8
 71
    3
 72
    8
 73
    4
 74
    0
 42
1e-07
 43
1e-07
 40
0
 40
0
 40
0
 40
0
 40
1
 40
1
 40
1
 40
1
 10
116.986302
 20
152.954722
 30
0
 10
116.909165
 20
153.088484
 30
0
 10
116.909165
 20
153.253286
 30
0
 10
116.986302
 20
153.387048
 30
0
  0
LWPOLYLINE
  5
DB
100
AcDbEntity
  8
hanging-holes
  6
ByLayer
 62
    7
100
AcDbPolyline
 90
    3
 70
    0
 43
0
 10
130.227073
 20
152.738559
 10
124.541597
 20
152.738559
 10
117.360266
 20
152.738559
  0
SPLINE
  5
DC
100
AcDbEntity
  8
hanging-holes
  6
ByLayer
 62
    7
100
AcDbSpline
210
0
220
0
230
0
 70
    8
 71
    3
 72
    8
 73
    4
 74
    0
 42
1e-07
 43
1e-07
 40
0
 40
0
 40
0
 40
0
 40
1
 40
1
 40
1
 40
1
 10
123.419705
 20
164.543168
 30
0
 10
123.496842
 20
164.67693
 30
0
 10
123.639396
 20
164.759331
 30
0
 10
123.793669
 20
164.759331
 30
0
  0
SPLINE
  5
DD
100
AcDbEntity
  8
hanging-holes
  6
ByLayer
 62
    7
100
AcDbSpline
210
0
220
0
230
0
 70
    8
 71
    3
 72
    8
 73
    4
 74
    0
 42
1e-07
 43
1e-07
 40
0
 40
0
 40
0
 40
0
 40
1
 40
1
 40
1
 40
1
 10
123.793669
 20
164.759331
 30
0
 10
123.947942
 20
164.759331
 30
0
 10
124.090496
 20
164.67693
 30
0
 10
124.167633
 20
164.543168
 30
0
  0
LWPOLYLINE
  5
DE
100
AcDbEntity
  8
hanging-holes
  6
ByLayer
 62
    7
100
AcDbPolyline
 90
    3
 70
    0
 43
0
 10
116.986302
 20
153.387048
 10
119.82904
 20
158.31662
 10
123.419705
 20
164.543168
  0
SPLINE
  5
DF
100
AcDbEntity
  8
hanging-holes
  6
ByLayer
 62
    7
100
AcDbSpline
210
0
220
0
230
0
 70
    8
 71
    3
 72
    8
 73
    4
 74
    0
 42
1e-07
 43
1e-07
 40
0
 40
0
 40
0
 40
0
 40
1
 40
1
 40
1
 40
1
 10
130.601037
 20
153.387048
 30
0
 10
130.678173
 20
153.253286
 30
0
 10
130.678173
 20
153.088484
 30
0
 10
130.601037
 20
152.954722
 30
0
  0
SPLINE
  5
E0
100
AcDbEntity
  8
hanging-holes
  6
ByLayer
 62
    7
100
AcDbSpline
210
0
220
0
230
0
 70
    8
 71
    3
 72
    8
 73
    4
 74
    0
 42
1e-07
 43
1e-07
 40
0
 40
0
 40
0
 40
0
 40
1
 40
1
 40
1
 40
1
 10
130.601037
 20
152.954722
 30
0
 10
130.5239
 20
152.82096
 30
0
 10
130.381346
 20
152.738559
 30
0
 10
130.227073
 20
152.738559
 30
0
  0
LWPOLYLINE
  5
E1
100
AcDbEntity
  8
hanging-holes
  6
ByLayer
 62
    7
100
AcDbPolyline
 90
    3
 70
    0
 43
0
 10
124.167633
 20
164.543168
 10
127.010371
 20
159.613596
 10
130.601037
 20
153.387048
  0
LWPOLYLINE
  5
E2
100
AcDbEntity
  8
hanging-holes
  6
ByLayer
 62
    7
100
AcDbPolyline
 90
    1
 70
    1
 43
0
 10
130.227073
 20
152.738559
  0
DIMENSION
  5
E3
100
AcDbEntity
  8
0
  6
ByLayer
 62
  256
100
AcDbDimension
  2
*D1
 10
25.40579231542051
 20
54.7537088441178
 30
0
 11
27.83716222507865
 21
55.60940643732435
 31
0
 70
   33
 71
    5
  3
Standard
 53
0
210
0
220
0
230
1
100
AcDbAlignedDimension
 13
32.775558
 23
61.325981
 33
0
 14
29.631747
 24
62.94742
 34
0
  0
DIMENSION
  5
E4
100
AcDbEntity
  8
0
  6
ByLayer
 62
  256
100
AcDbDimension
  2
*D2
 10
122.2212785407761
 20
70.11582948693732
 30
0
 11
75.92614447475304
 21
71.98770448266559
 31
0
 70
   33
 71
    5
  3
Standard
 53
0
210
0
220
0
230
1
100
AcDbAlignedDimension
 13
29.631747
 23
62.94742
 33
0
 14
122.221762
 24
62.95367
 34
0
  0
DIMENSION
  5
E5
100
AcDbEntity
  8
0
  6
ByLayer
 62
  256
100
AcDbDimension
  2
*D3
 10
16.462312
 20
108.2989588322081
 30
0
 11
15.7157435
 21
110.1739588322081
 31
0
 70
   33
 71
    5
  3
Standard
 53
0
210
0
220
0
230
1
100
AcDbAlignedDimension
 13
14.969175
 23
102.4551805
 33
0
 14
16.462312
 24
102.4551805
 34
0
  0
DIMENSION
  5
E6
100
AcDbEntity
  8
0
  6
ByLayer
 62
  256
100
AcDbDimension
  2
*D4
 10
139.963018
 20
93.0570373765718
 30
0
 11
78.21434000000001
 21
94.9320373765718
 31
0
 70
   33
 71
    5
  3
Standard
 53
0
210
0
220
0
230
1
100
AcDbAlignedDimension
 13
16.465662
 23
102.4551805
 33
0
 14
139.963018
 24
102.4551805
 34
0
  0
DIMENSION
  5
E7
100
AcDbEntity
  8
0
  6
ByLayer
 62
  256
100
AcDbDimension
  2
*D5
 10
149.843691
 20
180.0214078642928
 30
0
 11
77.49369850000001
 21
181.8964078642928
 31
0
 70
   33
 71
    5
  3
Standard
 53
0
210
0
220
0
230
1
100
AcDbAlignedDimension
 13
5.143706
 23
159.4163989275779
 33
0
 14
149.843691
 24
159.4163989275779
 34
0
  0
DIMENSION
  5
E8
100
AcDbEntity
  8
0
  6
ByLayer
 62
  256
100
AcDbDimension
  2
*D6
 10
161.7482961124113
 20
5.143702999999997
 30
0
 11
159.8732961124113
 21
87.724859
 31
0
 70
   33
 71
    5
  3
Standard
 53
0
210
0
220
0
230
1
100
AcDbAlignedDimension
 13
147.843693
 23
170.306015
 33
0
 14
147.843693
 24
5.143703
 34
0
  0
ENDSEC
  0
SECTION
  2
OBJECTS
  0
DICTIONARY
  5
C
100
AcDbDictionary
281
    1
  3
ACAD_GROUP
350
D
  0
DICTIONARY
  5
D
330
C
100
AcDbDictionary
281
    1
  0
ENDSEC
  0
EOF
