  0
SECTION
  2
HEADER
  9
$ACADVER
  1
AC1014
  9
$HANDSEED
  5
FFFF
  9
$MEASUREMENT
 70
     1
  0
ENDSEC
  0
SECTION
  2
TABLES
  0
TABLE
  2
VPORT
  5
8
330
0
100
AcDbSymbolTable
 70
     4
  0
VPORT
  5
2E
330
8
100
AcDbSymbolTableRecord
100
AcDbViewportTableRecord
  2
*ACTIVE
 70
     0
 10
0.0
 20
0.0
 11
1.0
 21
1.0
 12
210.0
 22
148.5
 13
0.0
 23
0.0
 14
10.0
 24
10.0
 15
10.0
 25
10.0
 16
0.0
 26
0.0
 36
1.0
 17
0.0
 27
0.0
 37
0.0
 40
341.0
 41
1.24
 42
50.0
 43
0.0
 44
0.0
 50
0.0
 51
0.0
 71
     0
 72
   100
 73
     1
 74
     3
 75
     0
 76
     0
 77
     0
 78
     0
  0
ENDTAB
  0
TABLE
  2
LTYPE
  5
5
330
0
100
AcDbSymbolTable
 70
     1
  0
LTYPE
  5
14
330
5
100
AcDbSymbolTableRecord
100
AcDbLinetypeTableRecord
  2
BYBLOCK
 70
     0
  3

 72
    65
 73
     0
 40
0.0
  0
LTYPE
  5
15
330
5
100
AcDbSymbolTableRecord
100
AcDbLinetypeTableRecord
  2
BYLAYER
 70
     0
  3

 72
    65
 73
     0
 40
0.0
  0
LTYPE
  5
16
330
5
100
AcDbSymbolTableRecord
100
AcDbLinetypeTableRecord
  2
CONTINUOUS
 70
     0
  3
Solid line
 72
    65
 73
     0
 40
0.0
  0
ENDTAB
  0
TABLE
  2
LAYER
  5
2
100
AcDbSymbolTable
 70
5
  0
LAYER
  5
50
100
AcDbSymbolTableRecord
100
AcDbLayerTableRecord
  2
0
 70
0
  6
CONTINUOUS
  0
LAYER
  5
51
100
AcDbSymbolTableRecord
100
AcDbLayerTableRecord
  2
outline
 70
0
  6
CONTINUOUS
  0
LAYER
  5
52
100
AcDbSymbolTableRecord
100
AcDbLayerTableRecord
  2
rfp-holes
 70
0
  6
CONTINUOUS
  0
LAYER
  5
53
100
AcDbSymbolTableRecord
100
AcDbLayerTableRecord
  2
cabletie-holes
 70
0
  6
CONTINUOUS
  0
LAYER
  5
54
100
AcDbSymbolTableRecord
100
AcDbLayerTableRecord
  2
hanging-holes
 70
0
  6
CONTINUOUS
  0
ENDTAB
  0
TABLE
  2
STYLE
  5
3
330
0
100
AcDbSymbolTable
 70
     1
  0
STYLE
  5
11
330
3
100
AcDbSymbolTableRecord
100
AcDbTextStyleTableRecord
  2
STANDARD
 70
     0
 40
0.0
 41
1.0
 50
0.0
 71
     0
 42
2.5
  3
txt
  4

  0
ENDTAB
  0
TABLE
  2
VIEW
  5
6
330
0
100
AcDbSymbolTable
 70
     0
  0
ENDTAB
  0
TABLE
  2
UCS
  5
7
330
0
100
AcDbSymbolTable
 70
     0
  0
ENDTAB
  0
TABLE
  2
APPID
  5
9
330
0
100
AcDbSymbolTable
 70
     2
  0
APPID
  5
12
330
9
100
AcDbSymbolTableRecord
100
AcDbRegAppTableRecord
  2
ACAD
 70
     0
  0
ENDTAB
  0
TABLE
  2
DIMSTYLE
  5
A
330
0
100
AcDbSymbolTable
 70
     1
  0
DIMSTYLE
105
27
330
A
100
AcDbSymbolTableRecord
100
AcDbDimStyleTableRecord
  2
ISO-25
 70
     0
  3

  4

  5

  6

  7

 40
1.0
 41
2.5
 42
0.625
 43
3.75
 44
1.25
 45
0.0
 46
0.0
 47
0.0
 48
0.0
140
2.5
141
2.5
142
0.0
143
0.03937007874016
144
1.0
145
0.0
146
1.0
147
0.625
 71
     0
 72
     0
 73
     0
 74
     0
 75
     0
 76
     0
 77
     1
 78
     8
170
     0
171
     3
172
     1
173
     0
174
     0
175
     0
176
     0
177
     0
178
     0
270
     2
271
     2
272
     2
273
     2
274
     3
340
11
275
     0
280
     0
281
     0
282
     0
283
     0
284
     8
285
     0
286
     0
287
     3
288
     0
  0
ENDTAB
  0
TABLE
  2
BLOCK_RECORD
  5
1
330
0
100
AcDbSymbolTable
 70
     1
  0
BLOCK_RECORD
  5
1F
330
1
100
AcDbSymbolTableRecord
100
AcDbBlockTableRecord
  2
*MODEL_SPACE
  0
BLOCK_RECORD
  5
1B
330
1
100
AcDbSymbolTableRecord
100
AcDbBlockTableRecord
  2
*PAPER_SPACE
  0
ENDTAB
  0
ENDSEC
  0
SECTION
  2
BLOCKS
  0
BLOCK
  5
20
330
1F
100
AcDbEntity
  8
0
100
AcDbBlockBegin
  2
*MODEL_SPACE
 70
     0
 10
0.0
 20
0.0
 30
0.0
  3
*MODEL_SPACE
  1

  0
ENDBLK
  5
21
330
1F
100
AcDbEntity
  8
0
100
AcDbBlockEnd
  0
BLOCK
  5
1C
330
1B
100
AcDbEntity
 67
     1
  8
0
100
AcDbBlockBegin
  2
*PAPER_SPACE
  1

  0
ENDBLK
  5
1D
330
1B
100
AcDbEntity
 67
     1
  8
0
100
AcDbBlockEnd
  0
ENDSEC
  0
SECTION
  2
ENTITIES
  0
SPLINE
  5
100
100
AcDbEntity
  8
outline
 62
7
100
AcDbSpline
 70
8
 71
3
 72
8
 73
4
 74
0
 40
0
 40
0
 40
0
 40
0
 40
1
 40
1
 40
1
 40
1
 10
147.843693
 20
170.306015
 30
0.0
 10
148.374126
 20
170.306015
 30
0.0
 10
148.882833
 20
170.095302
 30
0.0
 10
149.257905
 20
169.720229
 30
0.0
  0
SPLINE
  5
101
100
AcDbEntity
  8
outline
 62
7
100
AcDbSpline
 70
8
 71
3
 72
8
 73
4
 74
0
 40
0
 40
0
 40
0
 40
0
 40
1
 40
1
 40
1
 40
1
 10
149.257905
 20
169.720229
 30
0.0
 10
149.632978
 20
169.345157
 30
0.0
 10
149.843691
 20
168.836449
 30
0.0
 10
149.843691
 20
168.306017
 30
0.0
  0
LWPOLYLINE
  5
102
100
AcDbEntity
  8
outline
 62
7
100
AcDbPolyline
 90
2
 70
0
 10
7.143704
 20
170.306015
 30
0.0
 10
147.843693
 20
170.306015
 30
0.0
  0
SPLINE
  5
103
100
AcDbEntity
  8
outline
 62
7
100
AcDbSpline
 70
8
 71
3
 72
8
 73
4
 74
0
 40
0
 40
0
 40
0
 40
0
 40
1
 40
1
 40
1
 40
1
 10
149.843691
 20
7.143701
 30
0.0
 10
149.843691
 20
6.613269
 30
0.0
 10
149.632978
 20
6.104561
 30
0.0
 10
149.257905
 20
5.729489
 30
0.0
  0
SPLINE
  5
104
100
AcDbEntity
  8
outline
 62
7
100
AcDbSpline
 70
8
 71
3
 72
8
 73
4
 74
0
 40
0
 40
0
 40
0
 40
0
 40
1
 40
1
 40
1
 40
1
 10
149.257905
 20
5.729489
 30
0.0
 10
148.882833
 20
5.354416
 30
0.0
 10
148.374126
 20
5.143703
 30
0.0
 10
147.843693
 20
5.143703
 30
0.0
  0
LWPOLYLINE
  5
105
100
AcDbEntity
  8
outline
 62
7
100
AcDbPolyline
 90
2
 70
0
 10
149.843691
 20
168.306017
 30
0.0
 10
149.843691
 20
7.143701
 30
0.0
  0
SPLINE
  5
106
100
AcDbEntity
  8
outline
 62
7
100
AcDbSpline
 70
8
 71
3
 72
8
 73
4
 74
0
 40
0
 40
0
 40
0
 40
0
 40
1
 40
1
 40
1
 40
1
 10
7.143704
 20
5.143703
 30
0.0
 10
6.613272
 20
5.143703
 30
0.0
 10
6.104564
 20
5.354416
 30
0.0
 10
5.729492
 20
5.729489
 30
0.0
  0
SPLINE
  5
107
100
AcDbEntity
  8
outline
 62
7
100
AcDbSpline
 70
8
 71
3
 72
8
 73
4
 74
0
 40
0
 40
0
 40
0
 40
0
 40
1
 40
1
 40
1
 40
1
 10
5.729492
 20
5.729489
 30
0.0
 10
5.354419
 20
6.104561
 30
0.0
 10
5.143706
 20
6.613269
 30
0.0
 10
5.143706
 20
7.143701
 30
0.0
  0
LWPOLYLINE
  5
108
100
AcDbEntity
  8
outline
 62
7
100
AcDbPolyline
 90
2
 70
0
 10
147.843693
 20
5.143703
 30
0.0
 10
7.143704
 20
5.143703
 30
0.0
  0
SPLINE
  5
109
100
AcDbEntity
  8
outline
 62
7
100
AcDbSpline
 70
8
 71
3
 72
8
 73
4
 74
0
 40
0
 40
0
 40
0
 40
0
 40
1
 40
1
 40
1
 40
1
 10
5.143706
 20
168.306017
 30
0.0
 10
5.143706
 20
168.836449
 30
0.0
 10
5.354419
 20
169.345157
 30
0.0
 10
5.729492
 20
169.720229
 30
0.0
  0
SPLINE
  5
10a
100
AcDbEntity
  8
outline
 62
7
100
AcDbSpline
 70
8
 71
3
 72
8
 73
4
 74
0
 40
0
 40
0
 40
0
 40
0
 40
1
 40
1
 40
1
 40
1
 10
5.729492
 20
169.720229
 30
0.0
 10
6.104564
 20
170.095302
 30
0.0
 10
6.613272
 20
170.306015
 30
0.0
 10
7.143704
 20
170.306015
 30
0.0
  0
LWPOLYLINE
  5
10b
100
AcDbEntity
  8
outline
 62
7
100
AcDbPolyline
 90
2
 70
0
 10
5.143706
 20
7.143701
 30
0.0
 10
5.143706
 20
168.306017
 30
0.0
  0
SPLINE
  5
10c
100
AcDbEntity
  8
rfp-holes
 62
7
100
AcDbSpline
 70
8
 71
3
 72
8
 73
4
 74
0
 40
0
 40
0
 40
0
 40
0
 40
1
 40
1
 40
1
 40
1
 10
77.914608
 20
114.118904
 30
0.0
 10
78.365271
 20
113.886470
 30
0.0
 10
78.542181
 20
113.332711
 30
0.0
 10
78.309748
 20
112.882048
 30
0.0
  0
SPLINE
  5
10d
100
AcDbEntity
  8
rfp-holes
 62
7
100
AcDbSpline
 70
8
 71
3
 72
8
 73
4
 74
0
 40
0
 40
0
 40
0
 40
0
 40
1
 40
1
 40
1
 40
1
 10
78.309748
 20
112.882048
 30
0.0
 10
78.198129
 20
112.665632
 30
0.0
 10
78.005111
 20
112.502420
 30
0.0
 10
77.773155
 20
112.428317
 30
0.0
  0
SPLINE
  5
10e
100
AcDbEntity
  8
rfp-holes
 62
7
100
AcDbSpline
 70
8
 71
3
 72
8
 73
4
 74
0
 40
0
 40
0
 40
0
 40
0
 40
1
 40
1
 40
1
 40
1
 10
77.773155
 20
112.428317
 30
0.0
 10
77.541199
 20
112.354214
 30
0.0
 10
77.289307
 20
112.375290
 30
0.0
 10
77.072890
 20
112.486908
 30
0.0
  0
SPLINE
  5
10f
100
AcDbEntity
  8
rfp-holes
 62
7
100
AcDbSpline
 70
8
 71
3
 72
8
 73
4
 74
0
 40
0
 40
0
 40
0
 40
0
 40
1
 40
1
 40
1
 40
1
 10
77.072890
 20
112.486908
 30
0.0
 10
76.622228
 20
112.719342
 30
0.0
 10
76.445318
 20
113.273101
 30
0.0
 10
76.677751
 20
113.723764
 30
0.0
  0
SPLINE
  5
110
100
AcDbEntity
  8
rfp-holes
 62
7
100
AcDbSpline
 70
8
 71
3
 72
8
 73
4
 74
0
 40
0
 40
0
 40
0
 40
0
 40
1
 40
1
 40
1
 40
1
 10
76.677751
 20
113.723764
 30
0.0
 10
76.789369
 20
113.940181
 30
0.0
 10
76.982388
 20
114.103393
 30
0.0
 10
77.214343
 20
114.177496
 30
0.0
  0
SPLINE
  5
111
100
AcDbEntity
  8
rfp-holes
 62
7
100
AcDbSpline
 70
8
 71
3
 72
8
 73
4
 74
0
 40
0
 40
0
 40
0
 40
0
 40
1
 40
1
 40
1
 40
1
 10
77.214343
 20
114.177496
 30
0.0
 10
77.446299
 20
114.251599
 30
0.0
 10
77.698192
 20
114.230523
 30
0.0
 10
77.914608
 20
114.118904
 30
0.0
  0
LWPOLYLINE
  5
112
100
AcDbEntity
  8
outline
 62
7
100
AcDbPolyline
 90
1
 70
1
 10
7.143704
 20
170.306015
 30
0.0
  0
SPLINE
  5
113
100
AcDbEntity
  8
rfp-holes
 62
7
100
AcDbSpline
 70
8
 71
3
 72
8
 73
4
 74
0
 40
0
 40
0
 40
0
 40
0
 40
1
 40
1
 40
1
 40
1
 10
16.171375
 20
105.217666
 30
0.0
 10
16.622038
 20
104.985232
 30
0.0
 10
16.798948
 20
104.431473
 30
0.0
 10
16.566515
 20
103.980810
 30
0.0
  0
SPLINE
  5
114
100
AcDbEntity
  8
rfp-holes
 62
7
100
AcDbSpline
 70
8
 71
3
 72
8
 73
4
 74
0
 40
0
 40
0
 40
0
 40
0
 40
1
 40
1
 40
1
 40
1
 10
16.566515
 20
103.980810
 30
0.0
 10
16.454896
 20
103.764394
 30
0.0
 10
16.261878
 20
103.601181
 30
0.0
 10
16.029923
 20
103.527078
 30
0.0
  0
SPLINE
  5
115
100
AcDbEntity
  8
rfp-holes
 62
7
100
AcDbSpline
 70
8
 71
3
 72
8
 73
4
 74
0
 40
0
 40
0
 40
0
 40
0
 40
1
 40
1
 40
1
 40
1
 10
16.029923
 20
103.527078
 30
0.0
 10
15.797967
 20
103.452975
 30
0.0
 10
15.546074
 20
103.474051
 30
0.0
 10
15.329658
 20
103.585669
 30
0.0
  0
SPLINE
  5
116
100
AcDbEntity
  8
rfp-holes
 62
7
100
AcDbSpline
 70
8
 71
3
 72
8
 73
4
 74
0
 40
0
 40
0
 40
0
 40
0
 40
1
 40
1
 40
1
 40
1
 10
15.329658
 20
103.585669
 30
0.0
 10
15.113242
 20
103.697288
 30
0.0
 10
14.950029
 20
103.890306
 30
0.0
 10
14.875926
 20
104.122262
 30
0.0
  0
SPLINE
  5
117
100
AcDbEntity
  8
rfp-holes
 62
7
100
AcDbSpline
 70
8
 71
3
 72
8
 73
4
 74
0
 40
0
 40
0
 40
0
 40
0
 40
1
 40
1
 40
1
 40
1
 10
14.875926
 20
104.122262
 30
0.0
 10
14.801823
 20
104.354218
 30
0.0
 10
14.822899
 20
104.606110
 30
0.0
 10
14.934518
 20
104.822526
 30
0.0
  0
SPLINE
  5
118
100
AcDbEntity
  8
rfp-holes
 62
7
100
AcDbSpline
 70
8
 71
3
 72
8
 73
4
 74
0
 40
0
 40
0
 40
0
 40
0
 40
1
 40
1
 40
1
 40
1
 10
14.934518
 20
104.822526
 30
0.0
 10
15.046137
 20
105.038943
 30
0.0
 10
15.239155
 20
105.202155
 30
0.0
 10
15.471110
 20
105.276258
 30
0.0
  0
SPLINE
  5
119
100
AcDbEntity
  8
rfp-holes
 62
7
100
AcDbSpline
 70
8
 71
3
 72
8
 73
4
 74
0
 40
0
 40
0
 40
0
 40
0
 40
1
 40
1
 40
1
 40
1
 10
15.471110
 20
105.276258
 30
0.0
 10
15.703066
 20
105.350361
 30
0.0
 10
15.954959
 20
105.329285
 30
0.0
 10
16.171375
 20
105.217666
 30
0.0
  0
LWPOLYLINE
  5
11a
100
AcDbEntity
  8
rfp-holes
 62
7
100
AcDbPolyline
 90
1
 70
1
 10
77.914608
 20
114.118904
 30
0.0
  0
SPLINE
  5
11b
100
AcDbEntity
  8
rfp-holes
 62
7
100
AcDbSpline
 70
8
 71
3
 72
8
 73
4
 74
0
 40
0
 40
0
 40
0
 40
0
 40
1
 40
1
 40
1
 40
1
 10
139.664515
 20
105.217666
 30
0.0
 10
140.115177
 20
104.985232
 30
0.0
 10
140.292087
 20
104.431473
 30
0.0
 10
140.059654
 20
103.980810
 30
0.0
  0
SPLINE
  5
11c
100
AcDbEntity
  8
rfp-holes
 62
7
100
AcDbSpline
 70
8
 71
3
 72
8
 73
4
 74
0
 40
0
 40
0
 40
0
 40
0
 40
1
 40
1
 40
1
 40
1
 10
140.059654
 20
103.980810
 30
0.0
 10
139.948036
 20
103.764393
 30
0.0
 10
139.755017
 20
103.601181
 30
0.0
 10
139.523061
 20
103.527077
 30
0.0
  0
SPLINE
  5
11d
100
AcDbEntity
  8
rfp-holes
 62
7
100
AcDbSpline
 70
8
 71
3
 72
8
 73
4
 74
0
 40
0
 40
0
 40
0
 40
0
 40
1
 40
1
 40
1
 40
1
 10
139.523061
 20
103.527077
 30
0.0
 10
139.291105
 20
103.452974
 30
0.0
 10
139.039212
 20
103.474050
 30
0.0
 10
138.822795
 20
103.585669
 30
0.0
  0
SPLINE
  5
11e
100
AcDbEntity
  8
rfp-holes
 62
7
100
AcDbSpline
 70
8
 71
3
 72
8
 73
4
 74
0
 40
0
 40
0
 40
0
 40
0
 40
1
 40
1
 40
1
 40
1
 10
138.822795
 20
103.585669
 30
0.0
 10
138.606379
 20
103.697288
 30
0.0
 10
138.443167
 20
103.890306
 30
0.0
 10
138.369064
 20
104.122262
 30
0.0
  0
SPLINE
  5
11f
100
AcDbEntity
  8
rfp-holes
 62
7
100
AcDbSpline
 70
8
 71
3
 72
8
 73
4
 74
0
 40
0
 40
0
 40
0
 40
0
 40
1
 40
1
 40
1
 40
1
 10
138.369064
 20
104.122262
 30
0.0
 10
138.294961
 20
104.354218
 30
0.0
 10
138.316037
 20
104.606110
 30
0.0
 10
138.427656
 20
104.822526
 30
0.0
  0
SPLINE
  5
120
100
AcDbEntity
  8
rfp-holes
 62
7
100
AcDbSpline
 70
8
 71
3
 72
8
 73
4
 74
0
 40
0
 40
0
 40
0
 40
0
 40
1
 40
1
 40
1
 40
1
 10
138.427656
 20
104.822526
 30
0.0
 10
138.539274
 20
105.038943
 30
0.0
 10
138.732293
 20
105.202156
 30
0.0
 10
138.964249
 20
105.276259
 30
0.0
  0
SPLINE
  5
121
100
AcDbEntity
  8
rfp-holes
 62
7
100
AcDbSpline
 70
8
 71
3
 72
8
 73
4
 74
0
 40
0
 40
0
 40
0
 40
0
 40
1
 40
1
 40
1
 40
1
 10
138.964249
 20
105.276259
 30
0.0
 10
139.196205
 20
105.350362
 30
0.0
 10
139.448098
 20
105.329285
 30
0.0
 10
139.664515
 20
105.217666
 30
0.0
  0
LWPOLYLINE
  5
122
100
AcDbEntity
  8
rfp-holes
 62
7
100
AcDbPolyline
 90
1
 70
1
 10
16.171375
 20
105.217666
 30
0.0
  0
SPLINE
  5
123
100
AcDbEntity
  8
rfp-holes
 62
7
100
AcDbSpline
 70
8
 71
3
 72
8
 73
4
 74
0
 40
0
 40
0
 40
0
 40
0
 40
1
 40
1
 40
1
 40
1
 10
124.214531
 20
62.958940
 30
0.0
 10
124.430948
 20
62.847321
 30
0.0
 10
124.594160
 20
62.654303
 30
0.0
 10
124.668263
 20
62.422347
 30
0.0
  0
SPLINE
  5
124
100
AcDbEntity
  8
rfp-holes
 62
7
100
AcDbSpline
 70
8
 71
3
 72
8
 73
4
 74
0
 40
0
 40
0
 40
0
 40
0
 40
1
 40
1
 40
1
 40
1
 10
124.668263
 20
62.422347
 30
0.0
 10
124.742366
 20
62.190390
 30
0.0
 10
124.721290
 20
61.938497
 30
0.0
 10
124.609671
 20
61.722081
 30
0.0
  0
SPLINE
  5
125
100
AcDbEntity
  8
rfp-holes
 62
7
100
AcDbSpline
 70
8
 71
3
 72
8
 73
4
 74
0
 40
0
 40
0
 40
0
 40
0
 40
1
 40
1
 40
1
 40
1
 10
124.609671
 20
61.722081
 30
0.0
 10
124.498052
 20
61.505664
 30
0.0
 10
124.305034
 20
61.342452
 30
0.0
 10
124.073077
 20
61.268348
 30
0.0
  0
SPLINE
  5
126
100
AcDbEntity
  8
rfp-holes
 62
7
100
AcDbSpline
 70
8
 71
3
 72
8
 73
4
 74
0
 40
0
 40
0
 40
0
 40
0
 40
1
 40
1
 40
1
 40
1
 10
124.073077
 20
61.268348
 30
0.0
 10
123.841121
 20
61.194245
 30
0.0
 10
123.589228
 20
61.215322
 30
0.0
 10
123.372812
 20
61.326941
 30
0.0
  0
SPLINE
  5
127
100
AcDbEntity
  8
rfp-holes
 62
7
100
AcDbSpline
 70
8
 71
3
 72
8
 73
4
 74
0
 40
0
 40
0
 40
0
 40
0
 40
1
 40
1
 40
1
 40
1
 10
123.372812
 20
61.326941
 30
0.0
 10
123.156395
 20
61.438560
 30
0.0
 10
122.993182
 20
61.631578
 30
0.0
 10
122.919079
 20
61.863534
 30
0.0
  0
SPLINE
  5
128
100
AcDbEntity
  8
rfp-holes
 62
7
100
AcDbSpline
 70
8
 71
3
 72
8
 73
4
 74
0
 40
0
 40
0
 40
0
 40
0
 40
1
 40
1
 40
1
 40
1
 10
122.919079
 20
61.863534
 30
0.0
 10
122.844976
 20
62.095490
 30
0.0
 10
122.866053
 20
62.347384
 30
0.0
 10
122.977672
 20
62.563800
 30
0.0
  0
SPLINE
  5
129
100
AcDbEntity
  8
rfp-holes
 62
7
100
AcDbSpline
 70
8
 71
3
 72
8
 73
4
 74
0
 40
0
 40
0
 40
0
 40
0
 40
1
 40
1
 40
1
 40
1
 10
122.977672
 20
62.563800
 30
0.0
 10
123.089291
 20
62.780217
 30
0.0
 10
123.282309
 20
62.943429
 30
0.0
 10
123.514265
 20
63.017532
 30
0.0
  0
SPLINE
  5
12a
100
AcDbEntity
  8
rfp-holes
 62
7
100
AcDbSpline
 70
8
 71
3
 72
8
 73
4
 74
0
 40
0
 40
0
 40
0
 40
0
 40
1
 40
1
 40
1
 40
1
 10
123.514265
 20
63.017532
 30
0.0
 10
123.746221
 20
63.091635
 30
0.0
 10
123.998114
 20
63.070559
 30
0.0
 10
124.214531
 20
62.958940
 30
0.0
  0
LWPOLYLINE
  5
12b
100
AcDbEntity
  8
rfp-holes
 62
7
100
AcDbPolyline
 90
1
 70
1
 10
139.664515
 20
105.217666
 30
0.0
  0
SPLINE
  5
12c
100
AcDbEntity
  8
rfp-holes
 62
7
100
AcDbSpline
 70
8
 71
3
 72
8
 73
4
 74
0
 40
0
 40
0
 40
0
 40
0
 40
1
 40
1
 40
1
 40
1
 10
31.624513
 20
62.952700
 30
0.0
 10
31.840930
 20
62.841081
 30
0.0
 10
32.004142
 20
62.648063
 30
0.0
 10
32.078245
 20
62.416107
 30
0.0
  0
SPLINE
  5
12d
100
AcDbEntity
  8
rfp-holes
 62
7
100
AcDbSpline
 70
8
 71
3
 72
8
 73
4
 74
0
 40
0
 40
0
 40
0
 40
0
 40
1
 40
1
 40
1
 40
1
 10
32.078245
 20
62.416107
 30
0.0
 10
32.152348
 20
62.184150
 30
0.0
 10
32.131272
 20
61.932257
 30
0.0
 10
32.019652
 20
61.715841
 30
0.0
  0
SPLINE
  5
12e
100
AcDbEntity
  8
rfp-holes
 62
7
100
AcDbSpline
 70
8
 71
3
 72
8
 73
4
 74
0
 40
0
 40
0
 40
0
 40
0
 40
1
 40
1
 40
1
 40
1
 10
32.019652
 20
61.715841
 30
0.0
 10
31.908034
 20
61.499425
 30
0.0
 10
31.715016
 20
61.336212
 30
0.0
 10
31.483060
 20
61.262109
 30
0.0
  0
SPLINE
  5
12f
100
AcDbEntity
  8
rfp-holes
 62
7
100
AcDbSpline
 70
8
 71
3
 72
8
 73
4
 74
0
 40
0
 40
0
 40
0
 40
0
 40
1
 40
1
 40
1
 40
1
 10
31.483060
 20
61.262109
 30
0.0
 10
31.251104
 20
61.188006
 30
0.0
 10
30.999212
 20
61.209082
 30
0.0
 10
30.782795
 20
61.320701
 30
0.0
  0
SPLINE
  5
130
100
AcDbEntity
  8
rfp-holes
 62
7
100
AcDbSpline
 70
8
 71
3
 72
8
 73
4
 74
0
 40
0
 40
0
 40
0
 40
0
 40
1
 40
1
 40
1
 40
1
 10
30.782795
 20
61.320701
 30
0.0
 10
30.566379
 20
61.432320
 30
0.0
 10
30.403166
 20
61.625338
 30
0.0
 10
30.329063
 20
61.857294
 30
0.0
  0
SPLINE
  5
131
100
AcDbEntity
  8
rfp-holes
 62
7
100
AcDbSpline
 70
8
 71
3
 72
8
 73
4
 74
0
 40
0
 40
0
 40
0
 40
0
 40
1
 40
1
 40
1
 40
1
 10
30.329063
 20
61.857294
 30
0.0
 10
30.254960
 20
62.089250
 30
0.0
 10
30.276036
 20
62.341144
 30
0.0
 10
30.387656
 20
62.557560
 30
0.0
  0
SPLINE
  5
132
100
AcDbEntity
  8
rfp-holes
 62
7
100
AcDbSpline
 70
8
 71
3
 72
8
 73
4
 74
0
 40
0
 40
0
 40
0
 40
0
 40
1
 40
1
 40
1
 40
1
 10
30.387656
 20
62.557560
 30
0.0
 10
30.499274
 20
62.773976
 30
0.0
 10
30.692292
 20
62.937188
 30
0.0
 10
30.924248
 20
63.011291
 30
0.0
  0
SPLINE
  5
133
100
AcDbEntity
  8
rfp-holes
 62
7
100
AcDbSpline
 70
8
 71
3
 72
8
 73
4
 74
0
 40
0
 40
0
 40
0
 40
0
 40
1
 40
1
 40
1
 40
1
 10
30.924248
 20
63.011291
 30
0.0
 10
31.156204
 20
63.085395
 30
0.0
 10
31.408097
 20
63.064318
 30
0.0
 10
31.624513
 20
62.952700
 30
0.0
  0
LWPOLYLINE
  5
134
100
AcDbEntity
  8
rfp-holes
 62
7
100
AcDbPolyline
 90
1
 70
1
 10
124.214531
 20
62.958940
 30
0.0
  0
LWPOLYLINE
  5
135
100
AcDbEntity
  8
rfp-holes
 62
7
100
AcDbPolyline
 90
1
 70
1
 10
31.624513
 20
62.952700
 30
0.0
  0
LWPOLYLINE
  5
136
100
AcDbEntity
  8
cabletie-holes
 62
7
100
AcDbPolyline
 90
4
 70
1
 10
50.293757
 20
64.978598
 30
0.0
 10
51.993756
 20
64.978598
 30
0.0
 10
51.993756
 20
59.294863
 30
0.0
 10
50.293757
 20
59.294863
 30
0.0
  0
LWPOLYLINE
  5
137
100
AcDbEntity
  8
cabletie-holes
 62
7
100
AcDbPolyline
 90
4
 70
1
 10
102.993708
 20
64.978598
 30
0.0
 10
104.693706
 20
64.978598
 30
0.0
 10
104.693706
 20
59.294863
 30
0.0
 10
102.993708
 20
59.294863
 30
0.0
  0
LWPOLYLINE
  5
138
100
AcDbEntity
  8
cabletie-holes
 62
7
100
AcDbPolyline
 90
4
 70
1
 10
50.299957
 20
144.641935
 30
0.0
 10
51.999956
 20
144.641935
 30
0.0
 10
51.999956
 20
138.958199
 30
0.0
 10
50.299957
 20
138.958199
 30
0.0
  0
LWPOLYLINE
  5
139
100
AcDbEntity
  8
cabletie-holes
 62
7
100
AcDbPolyline
 90
4
 70
1
 10
102.999908
 20
144.641935
 30
0.0
 10
104.699906
 20
144.641935
 30
0.0
 10
104.699906
 20
138.958199
 30
0.0
 10
102.999908
 20
138.958199
 30
0.0
  0
LWPOLYLINE
  5
13a
100
AcDbEntity
  8
cabletie-holes
 62
7
100
AcDbPolyline
 90
4
 70
1
 10
14.900476
 20
144.641935
 30
0.0
 10
16.600475
 20
144.641935
 30
0.0
 10
16.600475
 20
138.958199
 30
0.0
 10
14.900476
 20
138.958199
 30
0.0
  0
LWPOLYLINE
  5
13b
100
AcDbEntity
  8
cabletie-holes
 62
7
100
AcDbPolyline
 90
4
 70
1
 10
138.393610
 20
144.641935
 30
0.0
 10
140.093608
 20
144.641935
 30
0.0
 10
140.093608
 20
138.958199
 30
0.0
 10
138.393610
 20
138.958199
 30
0.0
  0
LWPOLYLINE
  5
13c
100
AcDbEntity
  8
cabletie-holes
 62
7
100
AcDbPolyline
 90
4
 70
1
 10
14.900476
 20
64.978828
 30
0.0
 10
16.600475
 20
64.978828
 30
0.0
 10
16.600475
 20
59.295103
 30
0.0
 10
14.900476
 20
59.295103
 30
0.0
  0
LWPOLYLINE
  5
13d
100
AcDbEntity
  8
cabletie-holes
 62
7
100
AcDbPolyline
 90
4
 70
1
 10
138.393610
 20
64.978828
 30
0.0
 10
140.093608
 20
64.978828
 30
0.0
 10
140.093608
 20
59.295103
 30
0.0
 10
138.393610
 20
59.295103
 30
0.0
  0
LWPOLYLINE
  5
13e
100
AcDbEntity
  8
cabletie-holes
 62
7
100
AcDbPolyline
 90
4
 70
1
 10
50.299957
 20
104.841666
 30
0.0
 10
51.999956
 20
104.841666
 30
0.0
 10
51.999956
 20
99.157931
 30
0.0
 10
50.299957
 20
99.157931
 30
0.0
  0
LWPOLYLINE
  5
13f
100
AcDbEntity
  8
cabletie-holes
 62
7
100
AcDbPolyline
 90
4
 70
1
 10
102.999908
 20
104.841666
 30
0.0
 10
104.699906
 20
104.841666
 30
0.0
 10
104.699906
 20
99.157931
 30
0.0
 10
102.999908
 20
99.157931
 30
0.0
  0
LWPOLYLINE
  5
140
100
AcDbEntity
  8
cabletie-holes
 62
7
100
AcDbPolyline
 90
4
 70
1
 10
34.045163
 20
131.601658
 30
0.0
 10
34.045163
 20
129.901659
 30
0.0
 10
28.361427
 20
129.901659
 30
0.0
 10
28.361427
 20
131.601658
 30
0.0
  0
LWPOLYLINE
  5
141
100
AcDbEntity
  8
cabletie-holes
 62
7
100
AcDbPolyline
 90
4
 70
1
 10
34.045163
 20
78.901707
 30
0.0
 10
34.045163
 20
77.201708
 30
0.0
 10
28.361427
 20
77.201708
 30
0.0
 10
28.361427
 20
78.901707
 30
0.0
  0
LWPOLYLINE
  5
142
100
AcDbEntity
  8
cabletie-holes
 62
7
100
AcDbPolyline
 90
4
 70
1
 10
126.635089
 20
131.601658
 30
0.0
 10
126.635089
 20
129.901659
 30
0.0
 10
120.951353
 20
129.901659
 30
0.0
 10
120.951353
 20
131.601658
 30
0.0
  0
LWPOLYLINE
  5
143
100
AcDbEntity
  8
cabletie-holes
 62
7
100
AcDbPolyline
 90
4
 70
1
 10
126.635089
 20
78.901707
 30
0.0
 10
126.635089
 20
77.201708
 30
0.0
 10
120.951353
 20
77.201708
 30
0.0
 10
120.951353
 20
78.901707
 30
0.0
  0
LWPOLYLINE
  5
144
100
AcDbEntity
  8
cabletie-holes
 62
7
100
AcDbPolyline
 90
4
 70
1
 10
34.045163
 20
26.201749
 30
0.0
 10
34.045163
 20
24.501750
 30
0.0
 10
28.361427
 20
24.501750
 30
0.0
 10
28.361427
 20
26.201749
 30
0.0
  0
SPLINE
  5
145
100
AcDbEntity
  8
hanging-holes
 62
7
100
AcDbSpline
 70
8
 71
3
 72
8
 73
4
 74
0
 40
0
 40
0
 40
0
 40
0
 40
1
 40
1
 40
1
 40
1
 10
60.644004
 20
162.060516
 30
0.0
 10
60.978400
 20
161.888048
 30
0.0
 10
61.230587
 20
161.589806
 30
0.0
 10
61.345088
 20
161.231399
 30
0.0
  0
SPLINE
  5
146
100
AcDbEntity
  8
hanging-holes
 62
7
100
AcDbSpline
 70
8
 71
3
 72
8
 73
4
 74
0
 40
0
 40
0
 40
0
 40
0
 40
1
 40
1
 40
1
 40
1
 10
61.345088
 20
161.231399
 30
0.0
 10
61.459589
 20
160.872992
 30
0.0
 10
61.427023
 20
160.483779
 30
0.0
 10
61.254555
 20
160.149383
 30
0.0
  0
SPLINE
  5
147
100
AcDbEntity
  8
hanging-holes
 62
7
100
AcDbSpline
 70
8
 71
3
 72
8
 73
4
 74
0
 40
0
 40
0
 40
0
 40
0
 40
1
 40
1
 40
1
 40
1
 10
61.254555
 20
160.149383
 30
0.0
 10
60.895410
 20
159.453040
 30
0.0
 10
60.039767
 20
159.179687
 30
0.0
 10
59.343424
 20
159.538832
 30
0.0
  0
SPLINE
  5
148
100
AcDbEntity
  8
hanging-holes
 62
7
100
AcDbSpline
 70
8
 71
3
 72
8
 73
4
 74
0
 40
0
 40
0
 40
0
 40
0
 40
1
 40
1
 40
1
 40
1
 10
59.343424
 20
159.538832
 30
0.0
 10
59.009027
 20
159.711299
 30
0.0
 10
58.756840
 20
160.009542
 30
0.0
 10
58.642339
 20
160.367949
 30
0.0
  0
SPLINE
  5
149
100
AcDbEntity
  8
hanging-holes
 62
7
100
AcDbSpline
 70
8
 71
3
 72
8
 73
4
 74
0
 40
0
 40
0
 40
0
 40
0
 40
1
 40
1
 40
1
 40
1
 10
58.642339
 20
160.367949
 30
0.0
 10
58.527839
 20
160.726355
 30
0.0
 10
58.560404
 20
161.115568
 30
0.0
 10
58.732872
 20
161.449964
 30
0.0
  0
SPLINE
  5
14a
100
AcDbEntity
  8
hanging-holes
 62
7
100
AcDbSpline
 70
8
 71
3
 72
8
 73
4
 74
0
 40
0
 40
0
 40
0
 40
0
 40
1
 40
1
 40
1
 40
1
 10
58.732872
 20
161.449964
 30
0.0
 10
59.092017
 20
162.146308
 30
0.0
 10
59.947660
 20
162.419661
 30
0.0
 10
60.644004
 20
162.060516
 30
0.0
  0
LWPOLYLINE
  5
14b
100
AcDbEntity
  8
cabletie-holes
 62
7
100
AcDbPolyline
 90
4
 70
1
 10
126.635089
 20
26.201749
 30
0.0
 10
126.635089
 20
24.501750
 30
0.0
 10
120.951353
 20
24.501750
 30
0.0
 10
120.951353
 20
26.201749
 30
0.0
  0
SPLINE
  5
14c
100
AcDbEntity
  8
hanging-holes
 62
7
100
AcDbSpline
 70
8
 71
3
 72
8
 73
4
 74
0
 40
0
 40
0
 40
0
 40
0
 40
1
 40
1
 40
1
 40
1
 10
95.643976
 20
162.060516
 30
0.0
 10
95.978372
 20
161.888048
 30
0.0
 10
96.230559
 20
161.589806
 30
0.0
 10
96.345060
 20
161.231399
 30
0.0
  0
SPLINE
  5
14d
100
AcDbEntity
  8
hanging-holes
 62
7
100
AcDbSpline
 70
8
 71
3
 72
8
 73
4
 74
0
 40
0
 40
0
 40
0
 40
0
 40
1
 40
1
 40
1
 40
1
 10
96.345060
 20
161.231399
 30
0.0
 10
96.459561
 20
160.872992
 30
0.0
 10
96.426995
 20
160.483779
 30
0.0
 10
96.254527
 20
160.149383
 30
0.0
  0
SPLINE
  5
14e
100
AcDbEntity
  8
hanging-holes
 62
7
100
AcDbSpline
 70
8
 71
3
 72
8
 73
4
 74
0
 40
0
 40
0
 40
0
 40
0
 40
1
 40
1
 40
1
 40
1
 10
96.254527
 20
160.149383
 30
0.0
 10
95.895382
 20
159.453040
 30
0.0
 10
95.039739
 20
159.179687
 30
0.0
 10
94.343396
 20
159.538832
 30
0.0
  0
SPLINE
  5
14f
100
AcDbEntity
  8
hanging-holes
 62
7
100
AcDbSpline
 70
8
 71
3
 72
8
 73
4
 74
0
 40
0
 40
0
 40
0
 40
0
 40
1
 40
1
 40
1
 40
1
 10
94.343396
 20
159.538832
 30
0.0
 10
94.009000
 20
159.711299
 30
0.0
 10
93.756812
 20
160.009542
 30
0.0
 10
93.642311
 20
160.367949
 30
0.0
  0
SPLINE
  5
150
100
AcDbEntity
  8
hanging-holes
 62
7
100
AcDbSpline
 70
8
 71
3
 72
8
 73
4
 74
0
 40
0
 40
0
 40
0
 40
0
 40
1
 40
1
 40
1
 40
1
 10
93.642311
 20
160.367949
 30
0.0
 10
93.527811
 20
160.726355
 30
0.0
 10
93.560376
 20
161.115568
 30
0.0
 10
93.732844
 20
161.449964
 30
0.0
  0
SPLINE
  5
151
100
AcDbEntity
  8
hanging-holes
 62
7
100
AcDbSpline
 70
8
 71
3
 72
8
 73
4
 74
0
 40
0
 40
0
 40
0
 40
0
 40
1
 40
1
 40
1
 40
1
 10
93.732844
 20
161.449964
 30
0.0
 10
94.091990
 20
162.146308
 30
0.0
 10
94.947632
 20
162.419661
 30
0.0
 10
95.643976
 20
162.060516
 30
0.0
  0
LWPOLYLINE
  5
152
100
AcDbEntity
  8
hanging-holes
 62
7
100
AcDbPolyline
 90
1
 70
1
 10
60.644004
 20
162.060516
 30
0.0
  0
LWPOLYLINE
  5
153
100
AcDbEntity
  8
hanging-holes
 62
7
100
AcDbPolyline
 90
1
 70
1
 10
95.643976
 20
162.060516
 30
0.0
  0
SPLINE
  5
154
100
AcDbEntity
  8
hanging-holes
 62
7
100
AcDbSpline
 70
8
 71
3
 72
8
 73
4
 74
0
 40
0
 40
0
 40
0
 40
0
 40
1
 40
1
 40
1
 40
1
 10
73.257309
 20
156.844309
 30
0.0
 10
73.155571
 20
156.844309
 30
0.0
 10
73.061560
 20
156.898568
 30
0.0
 10
73.010691
 20
156.986647
 30
0.0
  0
SPLINE
  5
155
100
AcDbEntity
  8
hanging-holes
 62
7
100
AcDbSpline
 70
8
 71
3
 72
8
 73
4
 74
0
 40
0
 40
0
 40
0
 40
0
 40
1
 40
1
 40
1
 40
1
 10
73.010691
 20
156.986647
 30
0.0
 10
72.959822
 20
157.074727
 30
0.0
 10
72.959822
 20
157.183245
 30
0.0
 10
73.010691
 20
157.271325
 30
0.0
  0
LWPOLYLINE
  5
156
100
AcDbEntity
  8
hanging-holes
 62
7
100
AcDbPolyline
 90
3
 70
0
 10
81.742576
 20
156.844309
 30
0.0
 10
77.993178
 20
156.844309
 30
0.0
 10
73.257309
 20
156.844309
 30
0.0
  0
SPLINE
  5
157
100
AcDbEntity
  8
hanging-holes
 62
7
100
AcDbSpline
 70
8
 71
3
 72
8
 73
4
 74
0
 40
0
 40
0
 40
0
 40
0
 40
1
 40
1
 40
1
 40
1
 10
77.253325
 20
164.617397
 30
0.0
 10
77.304194
 20
164.705476
 30
0.0
 10
77.398204
 20
164.759735
 30
0.0
 10
77.499943
 20
164.759735
 30
0.0
  0
SPLINE
  5
158
100
AcDbEntity
  8
hanging-holes
 62
7
100
AcDbSpline
 70
8
 71
3
 72
8
 73
4
 74
0
 40
0
 40
0
 40
0
 40
0
 40
1
 40
1
 40
1
 40
1
 10
77.499943
 20
164.759735
 30
0.0
 10
77.601681
 20
164.759735
 30
0.0
 10
77.695691
 20
164.705476
 30
0.0
 10
77.746560
 20
164.617397
 30
0.0
  0
LWPOLYLINE
  5
159
100
AcDbEntity
  8
hanging-holes
 62
7
100
AcDbPolyline
 90
3
 70
0
 10
73.010691
 20
157.271325
 30
0.0
 10
74.885390
 20
160.517345
 30
0.0
 10
77.253325
 20
164.617397
 30
0.0
  0
SPLINE
  5
15a
100
AcDbEntity
  8
hanging-holes
 62
7
100
AcDbSpline
 70
8
 71
3
 72
8
 73
4
 74
0
 40
0
 40
0
 40
0
 40
0
 40
1
 40
1
 40
1
 40
1
 10
81.989194
 20
157.271325
 30
0.0
 10
82.040063
 20
157.183245
 30
0.0
 10
82.040063
 20
157.074727
 30
0.0
 10
81.989194
 20
156.986647
 30
0.0
  0
SPLINE
  5
15b
100
AcDbEntity
  8
hanging-holes
 62
7
100
AcDbSpline
 70
8
 71
3
 72
8
 73
4
 74
0
 40
0
 40
0
 40
0
 40
0
 40
1
 40
1
 40
1
 40
1
 10
81.989194
 20
156.986647
 30
0.0
 10
81.938325
 20
156.898568
 30
0.0
 10
81.844315
 20
156.844309
 30
0.0
 10
81.742576
 20
156.844309
 30
0.0
  0
LWPOLYLINE
  5
15c
100
AcDbEntity
  8
hanging-holes
 62
7
100
AcDbPolyline
 90
3
 70
0
 10
77.746560
 20
164.617397
 30
0.0
 10
79.621260
 20
161.371376
 30
0.0
 10
81.989194
 20
157.271325
 30
0.0
  0
LWPOLYLINE
  5
15d
100
AcDbEntity
  8
hanging-holes
 62
7
100
AcDbPolyline
 90
1
 70
1
 10
81.742576
 20
156.844309
 30
0.0
  0
SPLINE
  5
15e
100
AcDbEntity
  8
hanging-holes
 62
7
100
AcDbSpline
 70
8
 71
3
 72
8
 73
4
 74
0
 40
0
 40
0
 40
0
 40
0
 40
1
 40
1
 40
1
 40
1
 10
26.961020
 20
156.844309
 30
0.0
 10
26.859281
 20
156.844309
 30
0.0
 10
26.765271
 20
156.898568
 30
0.0
 10
26.714402
 20
156.986647
 30
0.0
  0
SPLINE
  5
15f
100
AcDbEntity
  8
hanging-holes
 62
7
100
AcDbSpline
 70
8
 71
3
 72
8
 73
4
 74
0
 40
0
 40
0
 40
0
 40
0
 40
1
 40
1
 40
1
 40
1
 10
26.714402
 20
156.986647
 30
0.0
 10
26.663533
 20
157.074727
 30
0.0
 10
26.663533
 20
157.183245
 30
0.0
 10
26.714402
 20
157.271325
 30
0.0
  0
LWPOLYLINE
  5
160
100
AcDbEntity
  8
hanging-holes
 62
7
100
AcDbPolyline
 90
3
 70
0
 10
35.446287
 20
156.844309
 30
0.0
 10
31.696889
 20
156.844309
 30
0.0
 10
26.961020
 20
156.844309
 30
0.0
  0
SPLINE
  5
161
100
AcDbEntity
  8
hanging-holes
 62
7
100
AcDbSpline
 70
8
 71
3
 72
8
 73
4
 74
0
 40
0
 40
0
 40
0
 40
0
 40
1
 40
1
 40
1
 40
1
 10
30.957036
 20
164.617397
 30
0.0
 10
31.007905
 20
164.705476
 30
0.0
 10
31.101915
 20
164.759735
 30
0.0
 10
31.203654
 20
164.759735
 30
0.0
  0
SPLINE
  5
162
100
AcDbEntity
  8
hanging-holes
 62
7
100
AcDbSpline
 70
8
 71
3
 72
8
 73
4
 74
0
 40
0
 40
0
 40
0
 40
0
 40
1
 40
1
 40
1
 40
1
 10
31.203654
 20
164.759735
 30
0.0
 10
31.305392
 20
164.759735
 30
0.0
 10
31.399402
 20
164.705476
 30
0.0
 10
31.450271
 20
164.617397
 30
0.0
  0
LWPOLYLINE
  5
163
100
AcDbEntity
  8
hanging-holes
 62
7
100
AcDbPolyline
 90
3
 70
0
 10
26.714402
 20
157.271325
 30
0.0
 10
28.589101
 20
160.517345
 30
0.0
 10
30.957036
 20
164.617397
 30
0.0
  0
SPLINE
  5
164
100
AcDbEntity
  8
hanging-holes
 62
7
100
AcDbSpline
 70
8
 71
3
 72
8
 73
4
 74
0
 40
0
 40
0
 40
0
 40
0
 40
1
 40
1
 40
1
 40
1
 10
35.692905
 20
157.271325
 30
0.0
 10
35.743774
 20
157.183245
 30
0.0
 10
35.743774
 20
157.074727
 30
0.0
 10
35.692905
 20
156.986647
 30
0.0
  0
SPLINE
  5
165
100
AcDbEntity
  8
hanging-holes
 62
7
100
AcDbSpline
 70
8
 71
3
 72
8
 73
4
 74
0
 40
0
 40
0
 40
0
 40
0
 40
1
 40
1
 40
1
 40
1
 10
35.692905
 20
156.986647
 30
0.0
 10
35.642036
 20
156.898568
 30
0.0
 10
35.548026
 20
156.844309
 30
0.0
 10
35.446287
 20
156.844309
 30
0.0
  0
LWPOLYLINE
  5
166
100
AcDbEntity
  8
hanging-holes
 62
7
100
AcDbPolyline
 90
3
 70
0
 10
31.450271
 20
164.617397
 30
0.0
 10
33.324970
 20
161.371376
 30
0.0
 10
35.692905
 20
157.271325
 30
0.0
  0
LWPOLYLINE
  5
167
100
AcDbEntity
  8
hanging-holes
 62
7
100
AcDbPolyline
 90
1
 70
1
 10
35.446287
 20
156.844309
 30
0.0
  0
SPLINE
  5
168
100
AcDbEntity
  8
hanging-holes
 62
7
100
AcDbSpline
 70
8
 71
3
 72
8
 73
4
 74
0
 40
0
 40
0
 40
0
 40
0
 40
1
 40
1
 40
1
 40
1
 10
119.551035
 20
156.844309
 30
0.0
 10
119.449296
 20
156.844309
 30
0.0
 10
119.355286
 20
156.898568
 30
0.0
 10
119.304417
 20
156.986647
 30
0.0
  0
SPLINE
  5
169
100
AcDbEntity
  8
hanging-holes
 62
7
100
AcDbSpline
 70
8
 71
3
 72
8
 73
4
 74
0
 40
0
 40
0
 40
0
 40
0
 40
1
 40
1
 40
1
 40
1
 10
119.304417
 20
156.986647
 30
0.0
 10
119.253548
 20
157.074727
 30
0.0
 10
119.253548
 20
157.183245
 30
0.0
 10
119.304417
 20
157.271325
 30
0.0
  0
LWPOLYLINE
  5
16a
100
AcDbEntity
  8
hanging-holes
 62
7
100
AcDbPolyline
 90
3
 70
0
 10
128.036302
 20
156.844309
 30
0.0
 10
124.286904
 20
156.844309
 30
0.0
 10
119.551035
 20
156.844309
 30
0.0
  0
SPLINE
  5
16b
100
AcDbEntity
  8
hanging-holes
 62
7
100
AcDbSpline
 70
8
 71
3
 72
8
 73
4
 74
0
 40
0
 40
0
 40
0
 40
0
 40
1
 40
1
 40
1
 40
1
 10
123.547051
 20
164.617397
 30
0.0
 10
123.597920
 20
164.705476
 30
0.0
 10
123.691930
 20
164.759735
 30
0.0
 10
123.793669
 20
164.759735
 30
0.0
  0
SPLINE
  5
16c
100
AcDbEntity
  8
hanging-holes
 62
7
100
AcDbSpline
 70
8
 71
3
 72
8
 73
4
 74
0
 40
0
 40
0
 40
0
 40
0
 40
1
 40
1
 40
1
 40
1
 10
123.793669
 20
164.759735
 30
0.0
 10
123.895407
 20
164.759735
 30
0.0
 10
123.989417
 20
164.705476
 30
0.0
 10
124.040286
 20
164.617397
 30
0.0
  0
LWPOLYLINE
  5
16d
100
AcDbEntity
  8
hanging-holes
 62
7
100
AcDbPolyline
 90
3
 70
0
 10
119.304417
 20
157.271325
 30
0.0
 10
121.179116
 20
160.517345
 30
0.0
 10
123.547051
 20
164.617397
 30
0.0
  0
SPLINE
  5
16e
100
AcDbEntity
  8
hanging-holes
 62
7
100
AcDbSpline
 70
8
 71
3
 72
8
 73
4
 74
0
 40
0
 40
0
 40
0
 40
0
 40
1
 40
1
 40
1
 40
1
 10
128.282920
 20
157.271325
 30
0.0
 10
128.333789
 20
157.183245
 30
0.0
 10
128.333789
 20
157.074727
 30
0.0
 10
128.282920
 20
156.986647
 30
0.0
  0
SPLINE
  5
16f
100
AcDbEntity
  8
hanging-holes
 62
7
100
AcDbSpline
 70
8
 71
3
 72
8
 73
4
 74
0
 40
0
 40
0
 40
0
 40
0
 40
1
 40
1
 40
1
 40
1
 10
128.282920
 20
156.986647
 30
0.0
 10
128.232051
 20
156.898568
 30
0.0
 10
128.138041
 20
156.844309
 30
0.0
 10
128.036302
 20
156.844309
 30
0.0
  0
LWPOLYLINE
  5
170
100
AcDbEntity
  8
hanging-holes
 62
7
100
AcDbPolyline
 90
3
 70
0
 10
124.040286
 20
164.617397
 30
0.0
 10
125.914986
 20
161.371376
 30
0.0
 10
128.282920
 20
157.271325
 30
0.0
  0
LWPOLYLINE
  5
171
100
AcDbEntity
  8
hanging-holes
 62
7
100
AcDbPolyline
 90
1
 70
1
 10
128.036302
 20
156.844309
 30
0.0
  0
ENDSEC
  0
SECTION
  2
OBJECTS
  0
DICTIONARY
  5
C
330
0
100
AcDbDictionary
  3
ACAD_GROUP
350
D
  3
ACAD_MLINESTYLE
350
17
  0
DICTIONARY
  5
D
330
C
100
AcDbDictionary
  0
DICTIONARY
  5
1A
330
C
100
AcDbDictionary
  0
DICTIONARY
  5
17
330
C
100
AcDbDictionary
  3
STANDARD
350
18
  0
DICTIONARY
  5
19
330
C
100
AcDbDictionary
  0
ENDSEC
  0
EOF
