  0
SECTION
  2
HEADER
  9
$ACADVER
  1
AC1014
  9
$HANDSEED
  5
FFFF
  9
$MEASUREMENT
 70
     1
  0
ENDSEC
  0
SECTION
  2
TABLES
  0
TABLE
  2
VPORT
  5
8
330
0
100
AcDbSymbolTable
 70
     4
  0
VPORT
  5
2E
330
8
100
AcDbSymbolTableRecord
100
AcDbViewportTableRecord
  2
*ACTIVE
 70
     0
 10
0.0
 20
0.0
 11
1.0
 21
1.0
 12
210.0
 22
148.5
 13
0.0
 23
0.0
 14
10.0
 24
10.0
 15
10.0
 25
10.0
 16
0.0
 26
0.0
 36
1.0
 17
0.0
 27
0.0
 37
0.0
 40
341.0
 41
1.24
 42
50.0
 43
0.0
 44
0.0
 50
0.0
 51
0.0
 71
     0
 72
   100
 73
     1
 74
     3
 75
     0
 76
     0
 77
     0
 78
     0
  0
ENDTAB
  0
TABLE
  2
LTYPE
  5
5
330
0
100
AcDbSymbolTable
 70
     1
  0
LTYPE
  5
14
330
5
100
AcDbSymbolTableRecord
100
AcDbLinetypeTableRecord
  2
BYBLOCK
 70
     0
  3

 72
    65
 73
     0
 40
0.0
  0
LTYPE
  5
15
330
5
100
AcDbSymbolTableRecord
100
AcDbLinetypeTableRecord
  2
BYLAYER
 70
     0
  3

 72
    65
 73
     0
 40
0.0
  0
LTYPE
  5
16
330
5
100
AcDbSymbolTableRecord
100
AcDbLinetypeTableRecord
  2
CONTINUOUS
 70
     0
  3
Solid line
 72
    65
 73
     0
 40
0.0
  0
ENDTAB
  0
TABLE
  2
LAYER
  5
2
100
AcDbSymbolTable
 70
6
  0
LAYER
  5
50
100
AcDbSymbolTableRecord
100
AcDbLayerTableRecord
  2
0
 70
0
  6
CONTINUOUS
  0
LAYER
  5
51
100
AcDbSymbolTableRecord
100
AcDbLayerTableRecord
  2
outline
 70
0
  6
CONTINUOUS
  0
LAYER
  5
52
100
AcDbSymbolTableRecord
100
AcDbLayerTableRecord
  2
rfp-hook-holes
 70
0
  6
CONTINUOUS
  0
LAYER
  5
53
100
AcDbSymbolTableRecord
100
AcDbLayerTableRecord
  2
rfp-latching-holes
 70
0
  6
CONTINUOUS
  0
LAYER
  5
54
100
AcDbSymbolTableRecord
100
AcDbLayerTableRecord
  2
cabletie-holes
 70
0
  6
CONTINUOUS
  0
LAYER
  5
55
100
AcDbSymbolTableRecord
100
AcDbLayerTableRecord
  2
hanging-holes
 70
0
  6
CONTINUOUS
  0
ENDTAB
  0
TABLE
  2
STYLE
  5
3
330
0
100
AcDbSymbolTable
 70
     1
  0
STYLE
  5
11
330
3
100
AcDbSymbolTableRecord
100
AcDbTextStyleTableRecord
  2
STANDARD
 70
     0
 40
0.0
 41
1.0
 50
0.0
 71
     0
 42
2.5
  3
txt
  4

  0
ENDTAB
  0
TABLE
  2
VIEW
  5
6
330
0
100
AcDbSymbolTable
 70
     0
  0
ENDTAB
  0
TABLE
  2
UCS
  5
7
330
0
100
AcDbSymbolTable
 70
     0
  0
ENDTAB
  0
TABLE
  2
APPID
  5
9
330
0
100
AcDbSymbolTable
 70
     2
  0
APPID
  5
12
330
9
100
AcDbSymbolTableRecord
100
AcDbRegAppTableRecord
  2
ACAD
 70
     0
  0
ENDTAB
  0
TABLE
  2
DIMSTYLE
  5
A
330
0
100
AcDbSymbolTable
 70
     1
  0
DIMSTYLE
105
27
330
A
100
AcDbSymbolTableRecord
100
AcDbDimStyleTableRecord
  2
ISO-25
 70
     0
  3

  4

  5

  6

  7

 40
1.0
 41
2.5
 42
0.625
 43
3.75
 44
1.25
 45
0.0
 46
0.0
 47
0.0
 48
0.0
140
2.5
141
2.5
142
0.0
143
0.03937007874016
144
1.0
145
0.0
146
1.0
147
0.625
 71
     0
 72
     0
 73
     0
 74
     0
 75
     0
 76
     0
 77
     1
 78
     8
170
     0
171
     3
172
     1
173
     0
174
     0
175
     0
176
     0
177
     0
178
     0
270
     2
271
     2
272
     2
273
     2
274
     3
340
11
275
     0
280
     0
281
     0
282
     0
283
     0
284
     8
285
     0
286
     0
287
     3
288
     0
  0
ENDTAB
  0
TABLE
  2
BLOCK_RECORD
  5
1
330
0
100
AcDbSymbolTable
 70
     1
  0
BLOCK_RECORD
  5
1F
330
1
100
AcDbSymbolTableRecord
100
AcDbBlockTableRecord
  2
*MODEL_SPACE
  0
BLOCK_RECORD
  5
1B
330
1
100
AcDbSymbolTableRecord
100
AcDbBlockTableRecord
  2
*PAPER_SPACE
  0
ENDTAB
  0
ENDSEC
  0
SECTION
  2
BLOCKS
  0
BLOCK
  5
20
330
1F
100
AcDbEntity
  8
0
100
AcDbBlockBegin
  2
*MODEL_SPACE
 70
     0
 10
0.0
 20
0.0
 30
0.0
  3
*MODEL_SPACE
  1

  0
ENDBLK
  5
21
330
1F
100
AcDbEntity
  8
0
100
AcDbBlockEnd
  0
BLOCK
  5
1C
330
1B
100
AcDbEntity
 67
     1
  8
0
100
AcDbBlockBegin
  2
*PAPER_SPACE
  1

  0
ENDBLK
  5
1D
330
1B
100
AcDbEntity
 67
     1
  8
0
100
AcDbBlockEnd
  0
ENDSEC
  0
SECTION
  2
ENTITIES
  0
SPLINE
  5
100
100
AcDbEntity
  8
outline
 62
7
100
AcDbSpline
 70
8
 71
3
 72
8
 73
4
 74
0
 40
0
 40
0
 40
0
 40
0
 40
1
 40
1
 40
1
 40
1
 10
147.843693
 20
170.306015
 30
0.0
 10
148.374126
 20
170.306015
 30
0.0
 10
148.882833
 20
170.095302
 30
0.0
 10
149.257905
 20
169.720229
 30
0.0
  0
SPLINE
  5
101
100
AcDbEntity
  8
outline
 62
7
100
AcDbSpline
 70
8
 71
3
 72
8
 73
4
 74
0
 40
0
 40
0
 40
0
 40
0
 40
1
 40
1
 40
1
 40
1
 10
149.257905
 20
169.720229
 30
0.0
 10
149.632978
 20
169.345157
 30
0.0
 10
149.843691
 20
168.836449
 30
0.0
 10
149.843691
 20
168.306017
 30
0.0
  0
LWPOLYLINE
  5
102
100
AcDbEntity
  8
outline
 62
7
100
AcDbPolyline
 90
2
 70
0
 10
7.143704
 20
170.306015
 30
0.0
 10
147.843693
 20
170.306015
 30
0.0
  0
SPLINE
  5
103
100
AcDbEntity
  8
outline
 62
7
100
AcDbSpline
 70
8
 71
3
 72
8
 73
4
 74
0
 40
0
 40
0
 40
0
 40
0
 40
1
 40
1
 40
1
 40
1
 10
149.843691
 20
7.143701
 30
0.0
 10
149.843691
 20
6.613269
 30
0.0
 10
149.632978
 20
6.104561
 30
0.0
 10
149.257905
 20
5.729489
 30
0.0
  0
SPLINE
  5
104
100
AcDbEntity
  8
outline
 62
7
100
AcDbSpline
 70
8
 71
3
 72
8
 73
4
 74
0
 40
0
 40
0
 40
0
 40
0
 40
1
 40
1
 40
1
 40
1
 10
149.257905
 20
5.729489
 30
0.0
 10
148.882833
 20
5.354416
 30
0.0
 10
148.374126
 20
5.143703
 30
0.0
 10
147.843693
 20
5.143703
 30
0.0
  0
LWPOLYLINE
  5
105
100
AcDbEntity
  8
outline
 62
7
100
AcDbPolyline
 90
2
 70
0
 10
149.843691
 20
168.306017
 30
0.0
 10
149.843691
 20
7.143701
 30
0.0
  0
SPLINE
  5
106
100
AcDbEntity
  8
outline
 62
7
100
AcDbSpline
 70
8
 71
3
 72
8
 73
4
 74
0
 40
0
 40
0
 40
0
 40
0
 40
1
 40
1
 40
1
 40
1
 10
7.143704
 20
5.143703
 30
0.0
 10
6.613272
 20
5.143703
 30
0.0
 10
6.104564
 20
5.354416
 30
0.0
 10
5.729492
 20
5.729489
 30
0.0
  0
SPLINE
  5
107
100
AcDbEntity
  8
outline
 62
7
100
AcDbSpline
 70
8
 71
3
 72
8
 73
4
 74
0
 40
0
 40
0
 40
0
 40
0
 40
1
 40
1
 40
1
 40
1
 10
5.729492
 20
5.729489
 30
0.0
 10
5.354419
 20
6.104561
 30
0.0
 10
5.143706
 20
6.613269
 30
0.0
 10
5.143706
 20
7.143701
 30
0.0
  0
LWPOLYLINE
  5
108
100
AcDbEntity
  8
outline
 62
7
100
AcDbPolyline
 90
2
 70
0
 10
147.843693
 20
5.143703
 30
0.0
 10
7.143704
 20
5.143703
 30
0.0
  0
SPLINE
  5
109
100
AcDbEntity
  8
outline
 62
7
100
AcDbSpline
 70
8
 71
3
 72
8
 73
4
 74
0
 40
0
 40
0
 40
0
 40
0
 40
1
 40
1
 40
1
 40
1
 10
5.143706
 20
168.306017
 30
0.0
 10
5.143706
 20
168.836449
 30
0.0
 10
5.354419
 20
169.345157
 30
0.0
 10
5.729492
 20
169.720229
 30
0.0
  0
SPLINE
  5
10a
100
AcDbEntity
  8
outline
 62
7
100
AcDbSpline
 70
8
 71
3
 72
8
 73
4
 74
0
 40
0
 40
0
 40
0
 40
0
 40
1
 40
1
 40
1
 40
1
 10
5.729492
 20
169.720229
 30
0.0
 10
6.104564
 20
170.095302
 30
0.0
 10
6.613272
 20
170.306015
 30
0.0
 10
7.143704
 20
170.306015
 30
0.0
  0
LWPOLYLINE
  5
10b
100
AcDbEntity
  8
outline
 62
7
100
AcDbPolyline
 90
2
 70
0
 10
5.143706
 20
7.143701
 30
0.0
 10
5.143706
 20
168.306017
 30
0.0
  0
SPLINE
  5
10c
100
AcDbEntity
  8
rfp-hook-holes
 62
7
100
AcDbSpline
 70
8
 71
3
 72
8
 73
4
 74
0
 40
0
 40
0
 40
0
 40
0
 40
1
 40
1
 40
1
 40
1
 10
124.604391
 20
63.714849
 30
0.0
 10
125.021287
 20
63.499833
 30
0.0
 10
125.335693
 20
63.128012
 30
0.0
 10
125.478444
 20
62.681183
 30
0.0
  0
SPLINE
  5
10d
100
AcDbEntity
  8
rfp-hook-holes
 62
7
100
AcDbSpline
 70
8
 71
3
 72
8
 73
4
 74
0
 40
0
 40
0
 40
0
 40
0
 40
1
 40
1
 40
1
 40
1
 10
125.478444
 20
62.681183
 30
0.0
 10
125.621195
 20
62.234353
 30
0.0
 10
125.580596
 20
61.749117
 30
0.0
 10
125.365580
 20
61.332221
 30
0.0
  0
SPLINE
  5
10e
100
AcDbEntity
  8
rfp-hook-holes
 62
7
100
AcDbSpline
 70
8
 71
3
 72
8
 73
4
 74
0
 40
0
 40
0
 40
0
 40
0
 40
1
 40
1
 40
1
 40
1
 10
125.365580
 20
61.332221
 30
0.0
 10
125.150564
 20
60.915322
 30
0.0
 10
124.778741
 20
60.600914
 30
0.0
 10
124.331909
 20
60.458163
 30
0.0
  0
SPLINE
  5
10f
100
AcDbEntity
  8
rfp-hook-holes
 62
7
100
AcDbSpline
 70
8
 71
3
 72
8
 73
4
 74
0
 40
0
 40
0
 40
0
 40
0
 40
1
 40
1
 40
1
 40
1
 10
124.331909
 20
60.458163
 30
0.0
 10
123.885077
 20
60.315412
 30
0.0
 10
123.399839
 20
60.356012
 30
0.0
 10
122.982942
 20
60.571032
 30
0.0
  0
SPLINE
  5
110
100
AcDbEntity
  8
rfp-hook-holes
 62
7
100
AcDbSpline
 70
8
 71
3
 72
8
 73
4
 74
0
 40
0
 40
0
 40
0
 40
0
 40
1
 40
1
 40
1
 40
1
 10
122.982942
 20
60.571032
 30
0.0
 10
122.566045
 20
60.786049
 30
0.0
 10
122.251639
 20
61.157873
 30
0.0
 10
122.108890
 20
61.604705
 30
0.0
  0
SPLINE
  5
111
100
AcDbEntity
  8
rfp-hook-holes
 62
7
100
AcDbSpline
 70
8
 71
3
 72
8
 73
4
 74
0
 40
0
 40
0
 40
0
 40
0
 40
1
 40
1
 40
1
 40
1
 10
122.108890
 20
61.604705
 30
0.0
 10
121.966141
 20
62.051536
 30
0.0
 10
122.006742
 20
62.536774
 30
0.0
 10
122.221762
 20
62.953670
 30
0.0
  0
SPLINE
  5
112
100
AcDbEntity
  8
rfp-hook-holes
 62
7
100
AcDbSpline
 70
8
 71
3
 72
8
 73
4
 74
0
 40
0
 40
0
 40
0
 40
0
 40
1
 40
1
 40
1
 40
1
 10
122.221762
 20
62.953670
 30
0.0
 10
122.669514
 20
63.821808
 30
0.0
 10
123.736252
 20
64.162599
 30
0.0
 10
124.604391
 20
63.714849
 30
0.0
  0
LWPOLYLINE
  5
113
100
AcDbEntity
  8
outline
 62
7
100
AcDbPolyline
 90
1
 70
1
 10
7.143704
 20
170.306015
 30
0.0
  0
SPLINE
  5
114
100
AcDbEntity
  8
rfp-hook-holes
 62
7
100
AcDbSpline
 70
8
 71
3
 72
8
 73
4
 74
0
 40
0
 40
0
 40
0
 40
0
 40
1
 40
1
 40
1
 40
1
 10
32.014377
 20
63.708609
 30
0.0
 10
32.882516
 20
63.260858
 30
0.0
 10
33.223308
 20
62.194120
 30
0.0
 10
32.775558
 20
61.325981
 30
0.0
  0
SPLINE
  5
115
100
AcDbEntity
  8
rfp-hook-holes
 62
7
100
AcDbSpline
 70
8
 71
3
 72
8
 73
4
 74
0
 40
0
 40
0
 40
0
 40
0
 40
1
 40
1
 40
1
 40
1
 10
32.775558
 20
61.325981
 30
0.0
 10
32.560542
 20
60.909085
 30
0.0
 10
32.188721
 20
60.594678
 30
0.0
 10
31.741891
 20
60.451927
 30
0.0
  0
SPLINE
  5
116
100
AcDbEntity
  8
rfp-hook-holes
 62
7
100
AcDbSpline
 70
8
 71
3
 72
8
 73
4
 74
0
 40
0
 40
0
 40
0
 40
0
 40
1
 40
1
 40
1
 40
1
 10
31.741891
 20
60.451927
 30
0.0
 10
31.295061
 20
60.309176
 30
0.0
 10
30.809825
 20
60.349775
 30
0.0
 10
30.392929
 20
60.564792
 30
0.0
  0
SPLINE
  5
117
100
AcDbEntity
  8
rfp-hook-holes
 62
7
100
AcDbSpline
 70
8
 71
3
 72
8
 73
4
 74
0
 40
0
 40
0
 40
0
 40
0
 40
1
 40
1
 40
1
 40
1
 10
30.392929
 20
60.564792
 30
0.0
 10
29.524790
 20
61.012542
 30
0.0
 10
29.183998
 20
62.079281
 30
0.0
 10
29.631747
 20
62.947420
 30
0.0
  0
SPLINE
  5
118
100
AcDbEntity
  8
rfp-hook-holes
 62
7
100
AcDbSpline
 70
8
 71
3
 72
8
 73
4
 74
0
 40
0
 40
0
 40
0
 40
0
 40
1
 40
1
 40
1
 40
1
 10
29.631747
 20
62.947420
 30
0.0
 10
29.846763
 20
63.364317
 30
0.0
 10
30.218585
 20
63.678723
 30
0.0
 10
30.665415
 20
63.821474
 30
0.0
  0
SPLINE
  5
119
100
AcDbEntity
  8
rfp-hook-holes
 62
7
100
AcDbSpline
 70
8
 71
3
 72
8
 73
4
 74
0
 40
0
 40
0
 40
0
 40
0
 40
1
 40
1
 40
1
 40
1
 10
30.665415
 20
63.821474
 30
0.0
 10
31.112245
 20
63.964225
 30
0.0
 10
31.597481
 20
63.923626
 30
0.0
 10
32.014377
 20
63.708609
 30
0.0
  0
LWPOLYLINE
  5
11a
100
AcDbEntity
  8
rfp-hook-holes
 62
7
100
AcDbPolyline
 90
1
 70
1
 10
124.604391
 20
63.714849
 30
0.0
  0
LWPOLYLINE
  5
11b
100
AcDbEntity
  8
rfp-hook-holes
 62
7
100
AcDbPolyline
 90
1
 70
1
 10
32.014377
 20
63.708609
 30
0.0
  0
LWPOLYLINE
  5
11c
100
AcDbEntity
  8
rfp-latching-holes
 62
7
100
AcDbPolyline
 90
38
 70
1
 10
77.234287
 20
114.051321
 30
0.0
 10
77.102297
 20
113.994861
 30
0.0
 10
76.984429
 20
113.915091
 30
0.0
 10
76.883689
 20
113.814631
 30
0.0
 10
76.803119
 20
113.695852
 30
0.0
 10
76.794319
 20
113.679312
 30
0.0
 10
76.739889
 20
113.542591
 30
0.0
 10
76.713509
 20
113.401913
 30
0.0
 10
76.714038
 20
113.261041
 30
0.0
 10
76.740568
 20
113.123711
 30
0.0
 10
76.791938
 20
112.993642
 30
0.0
 10
76.867048
 20
112.874503
 30
0.0
 10
76.964848
 20
112.770011
 30
0.0
 10
77.084216
 20
112.683891
 30
0.0
 10
77.118186
 20
112.665261
 30
0.0
 10
77.237947
 20
112.615951
 30
0.0
 10
77.363447
 20
112.588051
 30
0.0
 10
77.491857
 20
112.581951
 30
0.0
 10
77.620336
 20
112.598061
 30
0.0
 10
77.692326
 20
112.617241
 30
0.0
 10
77.807647
 20
112.664971
 30
0.0
 10
77.912845
 20
112.730581
 30
0.0
 10
78.005855
 20
112.812551
 30
0.0
 10
78.084605
 20
112.909351
 30
0.0
 10
78.109635
 20
112.948601
 30
0.0
 10
78.132255
 20
112.989251
 30
0.0
 10
78.186925
 20
113.127070
 30
0.0
 10
78.213425
 20
113.271540
 30
0.0
 10
78.211325
 20
113.418449
 30
0.0
 10
78.180355
 20
113.563470
 30
0.0
 10
78.121565
 20
113.699579
 30
0.0
 10
78.038115
 20
113.820420
 30
0.0
 10
77.932774
 20
113.922779
 30
0.0
 10
77.808256
 20
114.003289
 30
0.0
 10
77.670445
 20
114.058029
 30
0.0
 10
77.525964
 20
114.084519
 30
0.0
 10
77.379104
 20
114.082419
 30
0.0
 10
77.234134
 20
114.051349
 30
0.0
  0
LWPOLYLINE
  5
11d
100
AcDbEntity
  8
rfp-latching-holes
 62
7
100
AcDbPolyline
 90
35
 70
1
 10
15.490629
 20
103.152341
 30
0.0
 10
15.354207
 20
103.093411
 30
0.0
 10
15.233065
 20
103.009771
 30
0.0
 10
15.130465
 20
102.904210
 30
0.0
 10
15.049675
 20
102.779480
 30
0.0
 10
14.996185
 20
102.645900
 30
0.0
 10
14.969175
 20
102.505861
 30
0.0
 10
14.969003
 20
102.363251
 30
0.0
 10
14.996043
 20
102.221921
 30
0.0
 10
15.001543
 20
102.204031
 30
0.0
 10
15.058183
 20
102.071772
 30
0.0
 10
15.138103
 20
101.953633
 30
0.0
 10
15.238814
 20
101.852652
 30
0.0
 10
15.357858
 20
101.771842
 30
0.0
 10
15.374398
 20
101.763042
 30
0.0
 10
15.507983
 20
101.709612
 30
0.0
 10
15.648011
 20
101.682602
 30
0.0
 10
15.790615
 20
101.682412
 30
0.0
 10
15.931932
 20
101.709422
 30
0.0
 10
15.949842
 20
101.714922
 30
0.0
 10
16.082094
 20
101.771592
 30
0.0
 10
16.200204
 20
101.851512
 30
0.0
 10
16.301172
 20
101.952220
 30
0.0
 10
16.382002
 20
102.071241
 30
0.0
 10
16.390802
 20
102.087781
 30
0.0
 10
16.441002
 20
102.210121
 30
0.0
 10
16.469012
 20
102.339341
 30
0.0
 10
16.462312
 20
102.571020
 30
0.0
 10
16.387932
 20
102.785201
 30
0.0
 10
16.253365
 20
102.967660
 30
0.0
 10
16.066093
 20
103.104201
 30
0.0
 10
15.927957
 20
103.158951
 30
0.0
 10
15.783156
 20
103.185501
 30
0.0
 10
15.635964
 20
103.183401
 30
0.0
 10
15.490646
 20
103.152331
 30
0.0
  0
LWPOLYLINE
  5
11e
100
AcDbEntity
  8
rfp-latching-holes
 62
7
100
AcDbPolyline
 90
37
 70
1
 10
138.984669
 20
103.149690
 30
0.0
 10
138.853019
 20
103.093080
 30
0.0
 10
138.735429
 20
103.013430
 30
0.0
 10
138.634799
 20
102.913150
 30
0.0
 10
138.554099
 20
102.794680
 30
0.0
 10
138.545099
 20
102.778200
 30
0.0
 10
138.494699
 20
102.654110
 30
0.0
 10
138.467100
 20
102.524110
 30
0.0
 10
138.463100
 20
102.391241
 30
0.0
 10
138.482399
 20
102.258701
 30
0.0
 10
138.497399
 20
102.204901
 30
0.0
 10
138.553899
 20
102.073152
 30
0.0
 10
138.633499
 20
101.955482
 30
0.0
 10
138.733829
 20
101.854863
 30
0.0
 10
138.852369
 20
101.774323
 30
0.0
 10
138.868869
 20
101.765523
 30
0.0
 10
139.001969
 20
101.712363
 30
0.0
 10
139.141449
 20
101.685543
 30
0.0
 10
139.283509
 20
101.685321
 30
0.0
 10
139.424339
 20
101.712091
 30
0.0
 10
139.442239
 20
101.717591
 30
0.0
 10
139.561329
 20
101.767331
 30
0.0
 10
139.670279
 20
101.836641
 30
0.0
 10
139.789818
 20
101.951232
 30
0.0
 10
139.881518
 20
102.089083
 30
0.0
 10
139.937318
 20
102.230711
 30
0.0
 10
139.963018
 20
102.376192
 30
0.0
 10
139.960018
 20
102.521390
 30
0.0
 10
139.929418
 20
102.662320
 30
0.0
 10
139.872618
 20
102.794861
 30
0.0
 10
139.790918
 20
102.914981
 30
0.0
 10
139.685619
 20
103.018650
 30
0.0
 10
139.558059
 20
103.101750
 30
0.0
 10
139.420479
 20
103.156310
 30
0.0
 10
139.276229
 20
103.182640
 30
0.0
 10
139.129559
 20
103.180540
 30
0.0
 10
138.984709
 20
103.149690
 30
0.0
  0
LWPOLYLINE
  5
11f
100
AcDbEntity
  8
cabletie-holes
 62
7
100
AcDbPolyline
 90
4
 70
1
 10
50.293757
 20
64.978598
 30
0.0
 10
51.993756
 20
64.978598
 30
0.0
 10
51.993756
 20
59.294863
 30
0.0
 10
50.293757
 20
59.294863
 30
0.0
  0
LWPOLYLINE
  5
120
100
AcDbEntity
  8
cabletie-holes
 62
7
100
AcDbPolyline
 90
4
 70
1
 10
102.993708
 20
64.978598
 30
0.0
 10
104.693706
 20
64.978598
 30
0.0
 10
104.693706
 20
59.294863
 30
0.0
 10
102.993708
 20
59.294863
 30
0.0
  0
LWPOLYLINE
  5
121
100
AcDbEntity
  8
cabletie-holes
 62
7
100
AcDbPolyline
 90
4
 70
1
 10
50.299957
 20
144.641935
 30
0.0
 10
51.999956
 20
144.641935
 30
0.0
 10
51.999956
 20
138.958199
 30
0.0
 10
50.299957
 20
138.958199
 30
0.0
  0
LWPOLYLINE
  5
122
100
AcDbEntity
  8
cabletie-holes
 62
7
100
AcDbPolyline
 90
4
 70
1
 10
102.999908
 20
144.641935
 30
0.0
 10
104.699906
 20
144.641935
 30
0.0
 10
104.699906
 20
138.958199
 30
0.0
 10
102.999908
 20
138.958199
 30
0.0
  0
LWPOLYLINE
  5
123
100
AcDbEntity
  8
cabletie-holes
 62
7
100
AcDbPolyline
 90
4
 70
1
 10
14.900476
 20
144.641935
 30
0.0
 10
16.600475
 20
144.641935
 30
0.0
 10
16.600475
 20
138.958199
 30
0.0
 10
14.900476
 20
138.958199
 30
0.0
  0
LWPOLYLINE
  5
124
100
AcDbEntity
  8
cabletie-holes
 62
7
100
AcDbPolyline
 90
4
 70
1
 10
138.393610
 20
144.641935
 30
0.0
 10
140.093608
 20
144.641935
 30
0.0
 10
140.093608
 20
138.958199
 30
0.0
 10
138.393610
 20
138.958199
 30
0.0
  0
LWPOLYLINE
  5
125
100
AcDbEntity
  8
cabletie-holes
 62
7
100
AcDbPolyline
 90
4
 70
1
 10
14.900476
 20
64.978828
 30
0.0
 10
16.600475
 20
64.978828
 30
0.0
 10
16.600475
 20
59.295103
 30
0.0
 10
14.900476
 20
59.295103
 30
0.0
  0
LWPOLYLINE
  5
126
100
AcDbEntity
  8
cabletie-holes
 62
7
100
AcDbPolyline
 90
4
 70
1
 10
138.393610
 20
64.978828
 30
0.0
 10
140.093608
 20
64.978828
 30
0.0
 10
140.093608
 20
59.295103
 30
0.0
 10
138.393610
 20
59.295103
 30
0.0
  0
LWPOLYLINE
  5
127
100
AcDbEntity
  8
cabletie-holes
 62
7
100
AcDbPolyline
 90
4
 70
1
 10
50.299957
 20
104.841666
 30
0.0
 10
51.999956
 20
104.841666
 30
0.0
 10
51.999956
 20
99.157931
 30
0.0
 10
50.299957
 20
99.157931
 30
0.0
  0
LWPOLYLINE
  5
128
100
AcDbEntity
  8
cabletie-holes
 62
7
100
AcDbPolyline
 90
4
 70
1
 10
102.999908
 20
104.841666
 30
0.0
 10
104.699906
 20
104.841666
 30
0.0
 10
104.699906
 20
99.157931
 30
0.0
 10
102.999908
 20
99.157931
 30
0.0
  0
LWPOLYLINE
  5
129
100
AcDbEntity
  8
cabletie-holes
 62
7
100
AcDbPolyline
 90
4
 70
1
 10
34.045163
 20
131.601658
 30
0.0
 10
34.045163
 20
129.901659
 30
0.0
 10
28.361427
 20
129.901659
 30
0.0
 10
28.361427
 20
131.601658
 30
0.0
  0
LWPOLYLINE
  5
12a
100
AcDbEntity
  8
cabletie-holes
 62
7
100
AcDbPolyline
 90
4
 70
1
 10
34.045163
 20
78.901707
 30
0.0
 10
34.045163
 20
77.201708
 30
0.0
 10
28.361427
 20
77.201708
 30
0.0
 10
28.361427
 20
78.901707
 30
0.0
  0
LWPOLYLINE
  5
12b
100
AcDbEntity
  8
cabletie-holes
 62
7
100
AcDbPolyline
 90
4
 70
1
 10
126.635089
 20
131.601658
 30
0.0
 10
126.635089
 20
129.901659
 30
0.0
 10
120.951353
 20
129.901659
 30
0.0
 10
120.951353
 20
131.601658
 30
0.0
  0
LWPOLYLINE
  5
12c
100
AcDbEntity
  8
cabletie-holes
 62
7
100
AcDbPolyline
 90
4
 70
1
 10
126.635089
 20
78.901707
 30
0.0
 10
126.635089
 20
77.201708
 30
0.0
 10
120.951353
 20
77.201708
 30
0.0
 10
120.951353
 20
78.901707
 30
0.0
  0
LWPOLYLINE
  5
12d
100
AcDbEntity
  8
cabletie-holes
 62
7
100
AcDbPolyline
 90
4
 70
1
 10
34.045163
 20
26.201749
 30
0.0
 10
34.045163
 20
24.501750
 30
0.0
 10
28.361427
 20
24.501750
 30
0.0
 10
28.361427
 20
26.201749
 30
0.0
  0
SPLINE
  5
12e
100
AcDbEntity
  8
hanging-holes
 62
7
100
AcDbSpline
 70
8
 71
3
 72
8
 73
4
 74
0
 40
0
 40
0
 40
0
 40
0
 40
1
 40
1
 40
1
 40
1
 10
60.644004
 20
162.060516
 30
0.0
 10
60.978400
 20
161.888048
 30
0.0
 10
61.230587
 20
161.589806
 30
0.0
 10
61.345088
 20
161.231399
 30
0.0
  0
SPLINE
  5
12f
100
AcDbEntity
  8
hanging-holes
 62
7
100
AcDbSpline
 70
8
 71
3
 72
8
 73
4
 74
0
 40
0
 40
0
 40
0
 40
0
 40
1
 40
1
 40
1
 40
1
 10
61.345088
 20
161.231399
 30
0.0
 10
61.459589
 20
160.872992
 30
0.0
 10
61.427023
 20
160.483779
 30
0.0
 10
61.254555
 20
160.149383
 30
0.0
  0
SPLINE
  5
130
100
AcDbEntity
  8
hanging-holes
 62
7
100
AcDbSpline
 70
8
 71
3
 72
8
 73
4
 74
0
 40
0
 40
0
 40
0
 40
0
 40
1
 40
1
 40
1
 40
1
 10
61.254555
 20
160.149383
 30
0.0
 10
60.895410
 20
159.453040
 30
0.0
 10
60.039767
 20
159.179687
 30
0.0
 10
59.343424
 20
159.538832
 30
0.0
  0
SPLINE
  5
131
100
AcDbEntity
  8
hanging-holes
 62
7
100
AcDbSpline
 70
8
 71
3
 72
8
 73
4
 74
0
 40
0
 40
0
 40
0
 40
0
 40
1
 40
1
 40
1
 40
1
 10
59.343424
 20
159.538832
 30
0.0
 10
59.009027
 20
159.711299
 30
0.0
 10
58.756840
 20
160.009542
 30
0.0
 10
58.642339
 20
160.367949
 30
0.0
  0
SPLINE
  5
132
100
AcDbEntity
  8
hanging-holes
 62
7
100
AcDbSpline
 70
8
 71
3
 72
8
 73
4
 74
0
 40
0
 40
0
 40
0
 40
0
 40
1
 40
1
 40
1
 40
1
 10
58.642339
 20
160.367949
 30
0.0
 10
58.527839
 20
160.726355
 30
0.0
 10
58.560404
 20
161.115568
 30
0.0
 10
58.732872
 20
161.449964
 30
0.0
  0
SPLINE
  5
133
100
AcDbEntity
  8
hanging-holes
 62
7
100
AcDbSpline
 70
8
 71
3
 72
8
 73
4
 74
0
 40
0
 40
0
 40
0
 40
0
 40
1
 40
1
 40
1
 40
1
 10
58.732872
 20
161.449964
 30
0.0
 10
59.092017
 20
162.146308
 30
0.0
 10
59.947660
 20
162.419661
 30
0.0
 10
60.644004
 20
162.060516
 30
0.0
  0
LWPOLYLINE
  5
134
100
AcDbEntity
  8
cabletie-holes
 62
7
100
AcDbPolyline
 90
4
 70
1
 10
126.635089
 20
26.201749
 30
0.0
 10
126.635089
 20
24.501750
 30
0.0
 10
120.951353
 20
24.501750
 30
0.0
 10
120.951353
 20
26.201749
 30
0.0
  0
SPLINE
  5
135
100
AcDbEntity
  8
hanging-holes
 62
7
100
AcDbSpline
 70
8
 71
3
 72
8
 73
4
 74
0
 40
0
 40
0
 40
0
 40
0
 40
1
 40
1
 40
1
 40
1
 10
95.643976
 20
162.060516
 30
0.0
 10
95.978372
 20
161.888048
 30
0.0
 10
96.230559
 20
161.589806
 30
0.0
 10
96.345060
 20
161.231399
 30
0.0
  0
SPLINE
  5
136
100
AcDbEntity
  8
hanging-holes
 62
7
100
AcDbSpline
 70
8
 71
3
 72
8
 73
4
 74
0
 40
0
 40
0
 40
0
 40
0
 40
1
 40
1
 40
1
 40
1
 10
96.345060
 20
161.231399
 30
0.0
 10
96.459561
 20
160.872992
 30
0.0
 10
96.426995
 20
160.483779
 30
0.0
 10
96.254527
 20
160.149383
 30
0.0
  0
SPLINE
  5
137
100
AcDbEntity
  8
hanging-holes
 62
7
100
AcDbSpline
 70
8
 71
3
 72
8
 73
4
 74
0
 40
0
 40
0
 40
0
 40
0
 40
1
 40
1
 40
1
 40
1
 10
96.254527
 20
160.149383
 30
0.0
 10
95.895382
 20
159.453040
 30
0.0
 10
95.039739
 20
159.179687
 30
0.0
 10
94.343396
 20
159.538832
 30
0.0
  0
SPLINE
  5
138
100
AcDbEntity
  8
hanging-holes
 62
7
100
AcDbSpline
 70
8
 71
3
 72
8
 73
4
 74
0
 40
0
 40
0
 40
0
 40
0
 40
1
 40
1
 40
1
 40
1
 10
94.343396
 20
159.538832
 30
0.0
 10
94.009000
 20
159.711299
 30
0.0
 10
93.756812
 20
160.009542
 30
0.0
 10
93.642311
 20
160.367949
 30
0.0
  0
SPLINE
  5
139
100
AcDbEntity
  8
hanging-holes
 62
7
100
AcDbSpline
 70
8
 71
3
 72
8
 73
4
 74
0
 40
0
 40
0
 40
0
 40
0
 40
1
 40
1
 40
1
 40
1
 10
93.642311
 20
160.367949
 30
0.0
 10
93.527811
 20
160.726355
 30
0.0
 10
93.560376
 20
161.115568
 30
0.0
 10
93.732844
 20
161.449964
 30
0.0
  0
SPLINE
  5
13a
100
AcDbEntity
  8
hanging-holes
 62
7
100
AcDbSpline
 70
8
 71
3
 72
8
 73
4
 74
0
 40
0
 40
0
 40
0
 40
0
 40
1
 40
1
 40
1
 40
1
 10
93.732844
 20
161.449964
 30
0.0
 10
94.091990
 20
162.146308
 30
0.0
 10
94.947632
 20
162.419661
 30
0.0
 10
95.643976
 20
162.060516
 30
0.0
  0
LWPOLYLINE
  5
13b
100
AcDbEntity
  8
hanging-holes
 62
7
100
AcDbPolyline
 90
1
 70
1
 10
60.644004
 20
162.060516
 30
0.0
  0
LWPOLYLINE
  5
13c
100
AcDbEntity
  8
hanging-holes
 62
7
100
AcDbPolyline
 90
1
 70
1
 10
95.643976
 20
162.060516
 30
0.0
  0
SPLINE
  5
13d
100
AcDbEntity
  8
hanging-holes
 62
7
100
AcDbSpline
 70
8
 71
3
 72
8
 73
4
 74
0
 40
0
 40
0
 40
0
 40
0
 40
1
 40
1
 40
1
 40
1
 10
71.066540
 20
152.738559
 30
0.0
 10
70.912266
 20
152.738559
 30
0.0
 10
70.769712
 20
152.820960
 30
0.0
 10
70.692576
 20
152.954722
 30
0.0
  0
SPLINE
  5
13e
100
AcDbEntity
  8
hanging-holes
 62
7
100
AcDbSpline
 70
8
 71
3
 72
8
 73
4
 74
0
 40
0
 40
0
 40
0
 40
0
 40
1
 40
1
 40
1
 40
1
 10
70.692576
 20
152.954722
 30
0.0
 10
70.615439
 20
153.088484
 30
0.0
 10
70.615439
 20
153.253286
 30
0.0
 10
70.692576
 20
153.387048
 30
0.0
  0
LWPOLYLINE
  5
13f
100
AcDbEntity
  8
hanging-holes
 62
7
100
AcDbPolyline
 90
3
 70
0
 10
83.933347
 20
152.738559
 30
0.0
 10
78.247871
 20
152.738559
 30
0.0
 10
71.066540
 20
152.738559
 30
0.0
  0
SPLINE
  5
140
100
AcDbEntity
  8
hanging-holes
 62
7
100
AcDbSpline
 70
8
 71
3
 72
8
 73
4
 74
0
 40
0
 40
0
 40
0
 40
0
 40
1
 40
1
 40
1
 40
1
 10
77.125979
 20
164.543168
 30
0.0
 10
77.203116
 20
164.676930
 30
0.0
 10
77.345670
 20
164.759331
 30
0.0
 10
77.499943
 20
164.759331
 30
0.0
  0
SPLINE
  5
141
100
AcDbEntity
  8
hanging-holes
 62
7
100
AcDbSpline
 70
8
 71
3
 72
8
 73
4
 74
0
 40
0
 40
0
 40
0
 40
0
 40
1
 40
1
 40
1
 40
1
 10
77.499943
 20
164.759331
 30
0.0
 10
77.654216
 20
164.759331
 30
0.0
 10
77.796770
 20
164.676930
 30
0.0
 10
77.873907
 20
164.543168
 30
0.0
  0
LWPOLYLINE
  5
142
100
AcDbEntity
  8
hanging-holes
 62
7
100
AcDbPolyline
 90
3
 70
0
 10
70.692576
 20
153.387048
 30
0.0
 10
73.535314
 20
158.316620
 30
0.0
 10
77.125979
 20
164.543168
 30
0.0
  0
SPLINE
  5
143
100
AcDbEntity
  8
hanging-holes
 62
7
100
AcDbSpline
 70
8
 71
3
 72
8
 73
4
 74
0
 40
0
 40
0
 40
0
 40
0
 40
1
 40
1
 40
1
 40
1
 10
84.307311
 20
153.387048
 30
0.0
 10
84.384447
 20
153.253286
 30
0.0
 10
84.384447
 20
153.088484
 30
0.0
 10
84.307311
 20
152.954722
 30
0.0
  0
SPLINE
  5
144
100
AcDbEntity
  8
hanging-holes
 62
7
100
AcDbSpline
 70
8
 71
3
 72
8
 73
4
 74
0
 40
0
 40
0
 40
0
 40
0
 40
1
 40
1
 40
1
 40
1
 10
84.307311
 20
152.954722
 30
0.0
 10
84.230174
 20
152.820960
 30
0.0
 10
84.087620
 20
152.738559
 30
0.0
 10
83.933347
 20
152.738559
 30
0.0
  0
LWPOLYLINE
  5
145
100
AcDbEntity
  8
hanging-holes
 62
7
100
AcDbPolyline
 90
3
 70
0
 10
77.873907
 20
164.543168
 30
0.0
 10
80.716645
 20
159.613596
 30
0.0
 10
84.307311
 20
153.387048
 30
0.0
  0
LWPOLYLINE
  5
146
100
AcDbEntity
  8
hanging-holes
 62
7
100
AcDbPolyline
 90
1
 70
1
 10
83.933347
 20
152.738559
 30
0.0
  0
SPLINE
  5
147
100
AcDbEntity
  8
hanging-holes
 62
7
100
AcDbSpline
 70
8
 71
3
 72
8
 73
4
 74
0
 40
0
 40
0
 40
0
 40
0
 40
1
 40
1
 40
1
 40
1
 10
24.770250
 20
152.738559
 30
0.0
 10
24.615977
 20
152.738559
 30
0.0
 10
24.473423
 20
152.820960
 30
0.0
 10
24.396287
 20
152.954722
 30
0.0
  0
SPLINE
  5
148
100
AcDbEntity
  8
hanging-holes
 62
7
100
AcDbSpline
 70
8
 71
3
 72
8
 73
4
 74
0
 40
0
 40
0
 40
0
 40
0
 40
1
 40
1
 40
1
 40
1
 10
24.396287
 20
152.954722
 30
0.0
 10
24.319150
 20
153.088484
 30
0.0
 10
24.319150
 20
153.253286
 30
0.0
 10
24.396287
 20
153.387048
 30
0.0
  0
LWPOLYLINE
  5
149
100
AcDbEntity
  8
hanging-holes
 62
7
100
AcDbPolyline
 90
3
 70
0
 10
37.637058
 20
152.738559
 30
0.0
 10
31.951582
 20
152.738559
 30
0.0
 10
24.770250
 20
152.738559
 30
0.0
  0
SPLINE
  5
14a
100
AcDbEntity
  8
hanging-holes
 62
7
100
AcDbSpline
 70
8
 71
3
 72
8
 73
4
 74
0
 40
0
 40
0
 40
0
 40
0
 40
1
 40
1
 40
1
 40
1
 10
30.829690
 20
164.543168
 30
0.0
 10
30.906827
 20
164.676930
 30
0.0
 10
31.049381
 20
164.759331
 30
0.0
 10
31.203654
 20
164.759331
 30
0.0
  0
SPLINE
  5
14b
100
AcDbEntity
  8
hanging-holes
 62
7
100
AcDbSpline
 70
8
 71
3
 72
8
 73
4
 74
0
 40
0
 40
0
 40
0
 40
0
 40
1
 40
1
 40
1
 40
1
 10
31.203654
 20
164.759331
 30
0.0
 10
31.357927
 20
164.759331
 30
0.0
 10
31.500481
 20
164.676930
 30
0.0
 10
31.577618
 20
164.543168
 30
0.0
  0
LWPOLYLINE
  5
14c
100
AcDbEntity
  8
hanging-holes
 62
7
100
AcDbPolyline
 90
3
 70
0
 10
24.396287
 20
153.387048
 30
0.0
 10
27.239025
 20
158.316620
 30
0.0
 10
30.829690
 20
164.543168
 30
0.0
  0
SPLINE
  5
14d
100
AcDbEntity
  8
hanging-holes
 62
7
100
AcDbSpline
 70
8
 71
3
 72
8
 73
4
 74
0
 40
0
 40
0
 40
0
 40
0
 40
1
 40
1
 40
1
 40
1
 10
38.011022
 20
153.387048
 30
0.0
 10
38.088158
 20
153.253286
 30
0.0
 10
38.088158
 20
153.088484
 30
0.0
 10
38.011022
 20
152.954722
 30
0.0
  0
SPLINE
  5
14e
100
AcDbEntity
  8
hanging-holes
 62
7
100
AcDbSpline
 70
8
 71
3
 72
8
 73
4
 74
0
 40
0
 40
0
 40
0
 40
0
 40
1
 40
1
 40
1
 40
1
 10
38.011022
 20
152.954722
 30
0.0
 10
37.933885
 20
152.820960
 30
0.0
 10
37.791331
 20
152.738559
 30
0.0
 10
37.637058
 20
152.738559
 30
0.0
  0
LWPOLYLINE
  5
14f
100
AcDbEntity
  8
hanging-holes
 62
7
100
AcDbPolyline
 90
3
 70
0
 10
31.577618
 20
164.543168
 30
0.0
 10
34.420356
 20
159.613596
 30
0.0
 10
38.011022
 20
153.387048
 30
0.0
  0
LWPOLYLINE
  5
150
100
AcDbEntity
  8
hanging-holes
 62
7
100
AcDbPolyline
 90
1
 70
1
 10
37.637058
 20
152.738559
 30
0.0
  0
SPLINE
  5
151
100
AcDbEntity
  8
hanging-holes
 62
7
100
AcDbSpline
 70
8
 71
3
 72
8
 73
4
 74
0
 40
0
 40
0
 40
0
 40
0
 40
1
 40
1
 40
1
 40
1
 10
117.360266
 20
152.738559
 30
0.0
 10
117.205992
 20
152.738559
 30
0.0
 10
117.063438
 20
152.820960
 30
0.0
 10
116.986302
 20
152.954722
 30
0.0
  0
SPLINE
  5
152
100
AcDbEntity
  8
hanging-holes
 62
7
100
AcDbSpline
 70
8
 71
3
 72
8
 73
4
 74
0
 40
0
 40
0
 40
0
 40
0
 40
1
 40
1
 40
1
 40
1
 10
116.986302
 20
152.954722
 30
0.0
 10
116.909165
 20
153.088484
 30
0.0
 10
116.909165
 20
153.253286
 30
0.0
 10
116.986302
 20
153.387048
 30
0.0
  0
LWPOLYLINE
  5
153
100
AcDbEntity
  8
hanging-holes
 62
7
100
AcDbPolyline
 90
3
 70
0
 10
130.227073
 20
152.738559
 30
0.0
 10
124.541597
 20
152.738559
 30
0.0
 10
117.360266
 20
152.738559
 30
0.0
  0
SPLINE
  5
154
100
AcDbEntity
  8
hanging-holes
 62
7
100
AcDbSpline
 70
8
 71
3
 72
8
 73
4
 74
0
 40
0
 40
0
 40
0
 40
0
 40
1
 40
1
 40
1
 40
1
 10
123.419705
 20
164.543168
 30
0.0
 10
123.496842
 20
164.676930
 30
0.0
 10
123.639396
 20
164.759331
 30
0.0
 10
123.793669
 20
164.759331
 30
0.0
  0
SPLINE
  5
155
100
AcDbEntity
  8
hanging-holes
 62
7
100
AcDbSpline
 70
8
 71
3
 72
8
 73
4
 74
0
 40
0
 40
0
 40
0
 40
0
 40
1
 40
1
 40
1
 40
1
 10
123.793669
 20
164.759331
 30
0.0
 10
123.947942
 20
164.759331
 30
0.0
 10
124.090496
 20
164.676930
 30
0.0
 10
124.167633
 20
164.543168
 30
0.0
  0
LWPOLYLINE
  5
156
100
AcDbEntity
  8
hanging-holes
 62
7
100
AcDbPolyline
 90
3
 70
0
 10
116.986302
 20
153.387048
 30
0.0
 10
119.829040
 20
158.316620
 30
0.0
 10
123.419705
 20
164.543168
 30
0.0
  0
SPLINE
  5
157
100
AcDbEntity
  8
hanging-holes
 62
7
100
AcDbSpline
 70
8
 71
3
 72
8
 73
4
 74
0
 40
0
 40
0
 40
0
 40
0
 40
1
 40
1
 40
1
 40
1
 10
130.601037
 20
153.387048
 30
0.0
 10
130.678173
 20
153.253286
 30
0.0
 10
130.678173
 20
153.088484
 30
0.0
 10
130.601037
 20
152.954722
 30
0.0
  0
SPLINE
  5
158
100
AcDbEntity
  8
hanging-holes
 62
7
100
AcDbSpline
 70
8
 71
3
 72
8
 73
4
 74
0
 40
0
 40
0
 40
0
 40
0
 40
1
 40
1
 40
1
 40
1
 10
130.601037
 20
152.954722
 30
0.0
 10
130.523900
 20
152.820960
 30
0.0
 10
130.381346
 20
152.738559
 30
0.0
 10
130.227073
 20
152.738559
 30
0.0
  0
LWPOLYLINE
  5
159
100
AcDbEntity
  8
hanging-holes
 62
7
100
AcDbPolyline
 90
3
 70
0
 10
124.167633
 20
164.543168
 30
0.0
 10
127.010371
 20
159.613596
 30
0.0
 10
130.601037
 20
153.387048
 30
0.0
  0
LWPOLYLINE
  5
15a
100
AcDbEntity
  8
hanging-holes
 62
7
100
AcDbPolyline
 90
1
 70
1
 10
130.227073
 20
152.738559
 30
0.0
  0
ENDSEC
  0
SECTION
  2
OBJECTS
  0
DICTIONARY
  5
C
330
0
100
AcDbDictionary
  3
ACAD_GROUP
350
D
  3
ACAD_MLINESTYLE
350
17
  0
DICTIONARY
  5
D
330
C
100
AcDbDictionary
  0
DICTIONARY
  5
1A
330
C
100
AcDbDictionary
  0
DICTIONARY
  5
17
330
C
100
AcDbDictionary
  3
STANDARD
350
18
  0
DICTIONARY
  5
19
330
C
100
AcDbDictionary
  0
ENDSEC
  0
EOF
